<?xml version="1.0" encoding="UTF-8" standalone="no"?>
<!-- Created with Inkscape (http://www.inkscape.org/) -->

<svg
   width="18mm"
   height="9mm"
   viewBox="0 0 18 9"
   version="1.1"
   id="svg5"
   inkscape:version="1.1.2 (b8e25be8, 2022-02-05)"
   sodipodi:docname="graphics.svg"
   xmlns:inkscape="http://www.inkscape.org/namespaces/inkscape"
   xmlns:sodipodi="http://sodipodi.sourceforge.net/DTD/sodipodi-0.dtd"
   xmlns="http://www.w3.org/2000/svg"
   xmlns:svg="http://www.w3.org/2000/svg">
  <sodipodi:namedview
     id="namedview7"
     pagecolor="#ffffff"
     bordercolor="#666666"
     borderopacity="1.0"
     inkscape:pageshadow="2"
     inkscape:pageopacity="0.0"
     inkscape:pagecheckerboard="0"
     inkscape:document-units="mm"
     showgrid="false"
     inkscape:zoom="5.9759258"
     inkscape:cx="43.75891"
     inkscape:cy="22.925318"
     inkscape:window-width="1512"
     inkscape:window-height="916"
     inkscape:window-x="0"
     inkscape:window-y="38"
     inkscape:window-maximized="1"
     inkscape:current-layer="text1288" />
  <defs
     id="defs2" />
  <g
     inkscape:label="Layer 1"
     inkscape:groupmode="layer"
     id="layer1" />
  <g
     inkscape:groupmode="layer"
     id="layer2"
     inkscape:label="Layer 2">
    <g
       id="g8443"
       transform="matrix(0.8381887,0,0,0.8381887,-4.757144,-4.653017)">
      <g
         aria-label="rabid.audio"
         id="text1288"
         style="font-size:1.59007px;line-height:1.25;stroke-width:0.0441685">
        <path
           d="m 10.784947,12.362511 q 0,0.01941 0.01087,0.03028 0.01087,0.01009 0.02562,0.01009 0.01553,0 0.0264,-0.01087 0.01165,-0.01165 0.01165,-0.03261 v -0.107143 q 0,-0.02329 -0.01553,-0.03494 -0.01553,-0.01165 -0.0528,-0.01165 -0.215839,0 -0.304349,0.13587 l -0.0031,-0.08075 q -7.76e-4,-0.02174 -0.007,-0.03261 -0.0054,-0.01087 -0.02252,-0.01087 -0.0078,0 -0.01786,0.0023 l -0.132765,0.0264 q -0.01087,0.0023 -0.01708,0.01087 -0.0062,0.0078 -0.0062,0.01863 0,0.01242 0.0078,0.02174 0.0085,0.0093 0.02329,0.0093 0.0062,0 0.0093,-7.76e-4 l 0.09472,-0.01941 v 0.486803 h -0.142082 q -0.01553,0 -0.02407,0.0093 -0.0085,0.0093 -0.0085,0.02174 0,0.0132 0.0093,0.02329 0.0093,0.0093 0.0264,0.0093 h 0.473605 q 0.01475,0 0.02329,-0.0093 0.0085,-0.01009 0.0085,-0.02252 0,-0.0132 -0.0085,-0.02252 -0.0078,-0.0093 -0.02252,-0.0093 h -0.260871 v -0.344722 q 0.03106,-0.07764 0.111026,-0.118013 0.07997,-0.04115 0.184007,-0.04115 z"
           style="font-family:'Cutive Mono';-inkscape-font-specification:'Cutive Mono'"
           id="path964" />
        <path
           d="m 11.665386,12.471983 -0.05668,0.0039 q -0.126554,0.0085 -0.201865,0.02174 -0.07453,0.0132 -0.125777,0.05435 -0.05124,0.04115 -0.05124,0.121895 0,0.07997 0.04891,0.128106 0.04891,0.04736 0.13587,0.04736 0.08075,0 0.14907,-0.02873 0.0691,-0.02873 0.107143,-0.07143 0.0093,0.05512 0.03649,0.07453 0.02717,0.01863 0.06677,0.01863 0.03494,0 0.06677,-0.01475 0.03261,-0.01553 0.05745,-0.04192 0.0078,-0.0078 0.0078,-0.01941 0,-0.01242 -0.0085,-0.02252 -0.0085,-0.01009 -0.02019,-0.01009 -0.01009,0 -0.01863,0.0093 -0.0132,0.01398 -0.03571,0.0264 -0.02252,0.01165 -0.0427,0.01165 -0.01863,0 -0.0295,-0.0093 -0.01087,-0.01009 -0.01087,-0.03727 V 12.49217 q 0,-0.09472 -0.02019,-0.156833 -0.02019,-0.06289 -0.07143,-0.09627 -0.05047,-0.03338 -0.139752,-0.03338 -0.07919,0 -0.140529,0.02096 -0.06133,0.02096 -0.0955,0.05823 -0.03416,0.03727 -0.03416,0.08385 0,0.02484 0.01165,0.04037 0.01242,0.01553 0.03494,0.01553 0.0264,0 0.03727,-0.03028 0.01087,-0.03028 0.01398,-0.09006 0.04115,-0.01863 0.08152,-0.0264 0.04115,-0.0085 0.09006,-0.0085 0.08696,0 0.121895,0.04814 0.03571,0.04814 0.03571,0.138975 z m 0,0.218169 q -0.04193,0.04425 -0.10792,0.07065 -0.06522,0.02562 -0.134317,0.02562 -0.05357,0 -0.08618,-0.0264 -0.03183,-0.02717 -0.03183,-0.08618 0,-0.05435 0.03727,-0.0823 0.03727,-0.02795 0.100156,-0.03882 0.06367,-0.01165 0.190995,-0.02407 l 0.03183,-0.0031 z"
           style="font-family:'Cutive Mono';-inkscape-font-specification:'Cutive Mono'"
           id="path966" />
        <path
           d="m 12.263992,11.920739 q -0.0031,0 -0.01553,0.0016 l -0.14674,0.01475 q -0.0132,0.0023 -0.01941,0.01165 -0.0062,0.0093 -0.0062,0.02019 0,0.01242 0.0085,0.02096 0.0085,0.0085 0.02174,0.0085 0.0047,0 0.0085,-7.77e-4 0.0039,-7.76e-4 0.007,-0.0016 l 0.09938,-0.0062 v 0.7896 q 0,0.03571 0.0085,0.04814 0.0085,0.01242 0.02329,0.01242 0.01242,0 0.02019,-0.0047 0.0085,-0.0047 0.01398,-0.02251 0.0054,-0.01786 0.0054,-0.05513 0.04037,0.04115 0.0986,0.06677 0.05823,0.02562 0.128107,0.02562 0.08929,0 0.154503,-0.04115 0.066,-0.04115 0.100933,-0.114131 0.03494,-0.07298 0.03494,-0.166927 0,-0.09239 -0.03571,-0.165373 -0.03571,-0.07376 -0.102485,-0.114908 -0.06599,-0.04192 -0.15528,-0.04192 -0.07065,0 -0.122671,0.02096 -0.05124,0.02096 -0.09783,0.06133 v -0.336958 q 0,-0.03028 -0.03183,-0.03028 z m 0.253883,0.865687 q -0.07454,0 -0.130436,-0.03028 -0.05512,-0.03028 -0.09162,-0.0823 v -0.304349 q 0.07997,-0.100156 0.21584,-0.100156 0.07143,0 0.121895,0.03494 0.05047,0.03494 0.07609,0.09394 0.02562,0.05901 0.02562,0.129659 0,0.07143 -0.02485,0.130436 -0.02484,0.05823 -0.07376,0.09317 -0.04891,0.03494 -0.118789,0.03494 z"
           style="font-family:'Cutive Mono';-inkscape-font-specification:'Cutive Mono'"
           id="path968" />
        <path
           d="m 13.431699,11.992167 q 0,0.0264 0.01863,0.04503 0.01863,0.01863 0.04581,0.01863 0.02717,0 0.04503,-0.01863 0.01863,-0.01863 0.01863,-0.04503 0,-0.02717 -0.01863,-0.04581 -0.01863,-0.01863 -0.04503,-0.01863 -0.0264,0 -0.04581,0.01863 -0.01863,0.01863 -0.01863,0.04581 z m 0.374226,0.844725 q 0.01475,0 0.02329,-0.0093 0.0085,-0.0093 0.0085,-0.02252 0,-0.01242 -0.0085,-0.02174 -0.0078,-0.01009 -0.02252,-0.01009 H 13.54816 v -0.541152 q 0,-0.01165 -0.0078,-0.01786 -0.0078,-0.007 -0.02019,-0.007 -0.0062,0 -0.0085,7.76e-4 l -0.309008,0.0427 q -0.01242,0.0016 -0.01863,0.01087 -0.0062,0.0085 -0.0062,0.02019 0,0.0132 0.0085,0.02329 0.0085,0.0093 0.02329,0.0093 l 0.0054,-7.76e-4 0.258542,-0.03494 v 0.494567 h -0.288821 q -0.01553,0 -0.02407,0.0093 -0.0085,0.0085 -0.0085,0.02096 0,0.0132 0.0093,0.02329 0.0093,0.01009 0.0264,0.01009 z"
           style="font-family:'Cutive Mono';-inkscape-font-specification:'Cutive Mono'"
           id="path970" />
        <path
           d="m 14.636674,12.839221 0.144411,-0.01553 q 0.01398,-0.0031 0.02174,-0.01242 0.0078,-0.01009 0.0078,-0.02174 0,-0.01165 -0.0078,-0.01941 -0.0078,-0.0078 -0.02329,-0.0078 h -0.0047 l -0.114908,0.0085 v -0.81988 q 0,-0.03028 -0.03183,-0.03028 -0.0031,0 -0.01553,0.0016 l -0.14674,0.01475 q -0.0132,0.0023 -0.01941,0.01165 -0.0062,0.0093 -0.0062,0.02019 0,0.01242 0.0085,0.02096 0.0085,0.0085 0.02174,0.0085 0.0047,0 0.0085,-7.77e-4 0.0039,-7.76e-4 0.007,-0.0016 l 0.09938,-0.0062 v 0.298138 q -0.04658,-0.04037 -0.0986,-0.06133 -0.05124,-0.02096 -0.121895,-0.02096 -0.08929,0 -0.156057,0.04192 -0.06599,0.04115 -0.101709,0.114908 -0.03571,0.07298 -0.03571,0.165373 0,0.09394 0.03571,0.166927 0.03571,0.07298 0.101709,0.114131 0.06677,0.04115 0.156057,0.04115 0.07143,0 0.131211,-0.0264 0.06056,-0.02717 0.09627,-0.06988 l 0.0023,0.04658 q 7.77e-4,0.01941 0.01087,0.0295 0.01009,0.0093 0.02562,0.0093 z m -0.267082,-0.569878 q 0.13587,0 0.21584,0.100156 v 0.304349 q -0.07842,0.112578 -0.218946,0.112578 -0.06988,0 -0.119565,-0.03494 -0.04969,-0.03494 -0.07531,-0.09394 -0.02562,-0.05901 -0.02562,-0.129659 0,-0.07065 0.02562,-0.129659 0.02562,-0.05901 0.07609,-0.09394 0.05047,-0.03494 0.121895,-0.03494 z"
           style="font-family:'Cutive Mono';-inkscape-font-specification:'Cutive Mono'"
           id="path972" />
        <path
           d="m 15.448013,12.767792 q 0,-0.03494 -0.02407,-0.05823 -0.02329,-0.02407 -0.05823,-0.02407 -0.03494,0 -0.05901,0.02329 -0.02329,0.02329 -0.02329,0.05901 0,0.03571 0.02329,0.05901 0.02329,0.02252 0.05901,0.02252 0.03494,0 0.05823,-0.02329 0.02407,-0.02329 0.02407,-0.05823 z"
           style="font-family:'Cutive Mono';-inkscape-font-specification:'Cutive Mono'"
           id="path974" />
        <path
           d="m 16.479075,12.471983 -0.05668,0.0039 q -0.126553,0.0085 -0.201864,0.02174 -0.07453,0.0132 -0.125777,0.05435 -0.05124,0.04115 -0.05124,0.121895 0,0.07997 0.04891,0.128106 0.04891,0.04736 0.13587,0.04736 0.08075,0 0.149069,-0.02873 0.0691,-0.02873 0.107144,-0.07143 0.0093,0.05512 0.03649,0.07453 0.02717,0.01863 0.06677,0.01863 0.03494,0 0.06677,-0.01475 0.03261,-0.01553 0.05745,-0.04192 0.0078,-0.0078 0.0078,-0.01941 0,-0.01242 -0.0085,-0.02252 -0.0085,-0.01009 -0.02019,-0.01009 -0.01009,0 -0.01863,0.0093 -0.0132,0.01398 -0.03571,0.0264 -0.02251,0.01165 -0.0427,0.01165 -0.01863,0 -0.0295,-0.0093 -0.01087,-0.01009 -0.01087,-0.03727 V 12.49217 q 0,-0.09472 -0.02019,-0.156833 -0.02019,-0.06289 -0.07143,-0.09627 -0.05047,-0.03338 -0.139752,-0.03338 -0.07919,0 -0.140529,0.02096 -0.06134,0.02096 -0.0955,0.05823 -0.03416,0.03727 -0.03416,0.08385 0,0.02484 0.01165,0.04037 0.01242,0.01553 0.03494,0.01553 0.0264,0 0.03727,-0.03028 0.01087,-0.03028 0.01398,-0.09006 0.04115,-0.01863 0.08152,-0.0264 0.04115,-0.0085 0.09006,-0.0085 0.08696,0 0.121895,0.04814 0.03572,0.04814 0.03572,0.138975 z m 0,0.218169 q -0.04193,0.04425 -0.10792,0.07065 -0.06522,0.02562 -0.134317,0.02562 -0.05357,0 -0.08618,-0.0264 -0.03183,-0.02717 -0.03183,-0.08618 0,-0.05435 0.03727,-0.0823 0.03727,-0.02795 0.100156,-0.03882 0.06366,-0.01165 0.190994,-0.02407 l 0.03183,-0.0031 z"
           style="font-family:'Cutive Mono';-inkscape-font-specification:'Cutive Mono'"
           id="path976" />
        <path
           d="m 17.093985,12.240616 q 0,-0.01087 -0.0078,-0.01863 -0.007,-0.0078 -0.01863,-0.0078 -0.0031,0 -0.0093,0.0016 l -0.13587,0.02717 q -0.01397,0.0031 -0.02096,0.01087 -0.007,0.0078 -0.007,0.01863 0,0.0132 0.01009,0.02329 0.01009,0.01009 0.02562,0.01009 0.0085,0 0.0132,-0.0016 l 0.07609,-0.01553 v 0.344722 q 0,0.06444 0.0264,0.113355 0.02717,0.04891 0.07842,0.07609 0.05124,0.02717 0.121119,0.02717 0.07298,0 0.140528,-0.03339 0.06755,-0.03339 0.101709,-0.08385 l 0.0039,0.06755 q 7.76e-4,0.01941 0.01087,0.0295 0.01009,0.0093 0.02562,0.0093 h 0.0054 l 0.14441,-0.01553 q 0.01398,-0.0031 0.02174,-0.01242 0.0078,-0.01009 0.0078,-0.02174 0,-0.01165 -0.0078,-0.01941 -0.0078,-0.0078 -0.02329,-0.0078 h -0.0047 l -0.114907,0.0085 v -0.530282 q 0,-0.01087 -0.0078,-0.01863 -0.007,-0.0078 -0.01863,-0.0078 -0.0031,0 -0.0093,0.0016 l -0.135094,0.02717 q -0.01475,0.0031 -0.02251,0.01165 -0.007,0.0078 -0.007,0.01863 0,0.0132 0.01009,0.02329 0.01009,0.01009 0.0264,0.01009 0.007,0 0.01397,-0.0023 l 0.07531,-0.01553 v 0.36879 q -0.01708,0.03571 -0.0559,0.06522 -0.03804,0.0295 -0.08618,0.04658 -0.04814,0.01708 -0.09395,0.01708 -0.07531,0 -0.114131,-0.04115 -0.03804,-0.04193 -0.03804,-0.109473 z"
           style="font-family:'Cutive Mono';-inkscape-font-specification:'Cutive Mono'"
           id="path978" />
        <path
           d="m 18.487625,12.839221 0.14441,-0.01553 q 0.01398,-0.0031 0.02174,-0.01242 0.0078,-0.01009 0.0078,-0.02174 0,-0.01165 -0.0078,-0.01941 -0.0078,-0.0078 -0.02329,-0.0078 h -0.0047 l -0.114907,0.0085 v -0.81988 q 0,-0.03028 -0.03183,-0.03028 -0.0031,0 -0.01553,0.0016 l -0.146739,0.01475 q -0.0132,0.0023 -0.01941,0.01165 -0.0062,0.0093 -0.0062,0.02019 0,0.01242 0.0085,0.02096 0.0085,0.0085 0.02174,0.0085 0.0047,0 0.0085,-7.77e-4 0.0039,-7.76e-4 0.007,-0.0016 l 0.09938,-0.0062 v 0.298138 q -0.04658,-0.04037 -0.0986,-0.06133 -0.05124,-0.02096 -0.121895,-0.02096 -0.08929,0 -0.156056,0.04192 -0.06599,0.04115 -0.101709,0.114908 -0.03571,0.07298 -0.03571,0.165373 0,0.09394 0.03571,0.166927 0.03571,0.07298 0.101709,0.114131 0.06677,0.04115 0.156056,0.04115 0.07143,0 0.131212,-0.0264 0.06056,-0.02717 0.09627,-0.06988 l 0.0023,0.04658 q 7.77e-4,0.01941 0.01087,0.0295 0.01009,0.0093 0.02562,0.0093 z m -0.267082,-0.569878 q 0.13587,0 0.215839,0.100156 v 0.304349 q -0.07842,0.112578 -0.218945,0.112578 -0.06988,0 -0.119566,-0.03494 -0.04969,-0.03494 -0.07531,-0.09394 -0.02562,-0.05901 -0.02562,-0.129659 0,-0.07065 0.02562,-0.129659 0.02562,-0.05901 0.07609,-0.09394 0.05047,-0.03494 0.121895,-0.03494 z"
           style="font-family:'Cutive Mono';-inkscape-font-specification:'Cutive Mono'"
           id="path980" />
        <path
           d="m 19.208126,11.992167 q 0,0.0264 0.01863,0.04503 0.01863,0.01863 0.04581,0.01863 0.02717,0 0.04503,-0.01863 0.01863,-0.01863 0.01863,-0.04503 0,-0.02717 -0.01863,-0.04581 -0.01863,-0.01863 -0.04503,-0.01863 -0.0264,0 -0.04581,0.01863 -0.01863,0.01863 -0.01863,0.04581 z m 0.374225,0.844725 q 0.01475,0 0.02329,-0.0093 0.0085,-0.0093 0.0085,-0.02252 0,-0.01242 -0.0085,-0.02174 -0.0078,-0.01009 -0.02252,-0.01009 h -0.258542 v -0.541152 q 0,-0.01165 -0.0078,-0.01786 -0.0078,-0.007 -0.02019,-0.007 -0.0062,0 -0.0085,7.76e-4 l -0.309008,0.0427 q -0.01242,0.0016 -0.01863,0.01087 -0.0062,0.0085 -0.0062,0.02019 0,0.0132 0.0085,0.02329 0.0085,0.0093 0.02329,0.0093 l 0.0054,-7.76e-4 0.258541,-0.03494 v 0.494567 H 18.96123 q -0.01553,0 -0.02407,0.0093 -0.0085,0.0085 -0.0085,0.02096 0,0.0132 0.0093,0.02329 0.0093,0.01009 0.0264,0.01009 z"
           style="font-family:'Cutive Mono';-inkscape-font-specification:'Cutive Mono'"
           id="path982" />
        <path
           d="m 19.850209,12.527884 q 0,0.09705 0.04115,0.170032 0.04115,0.07298 0.115684,0.112578 0.07454,0.0396 0.172361,0.0396 0.09783,0 0.172361,-0.0396 0.07454,-0.0396 0.115684,-0.112578 0.04115,-0.07298 0.04115,-0.170032 0,-0.09783 -0.04115,-0.170808 -0.04115,-0.07298 -0.115684,-0.111802 -0.07453,-0.0396 -0.172361,-0.0396 -0.09783,0 -0.172361,0.0396 -0.07453,0.03882 -0.115684,0.111802 -0.04115,0.07298 -0.04115,0.170808 z m 0.08385,0 q 0,-0.07531 0.02873,-0.133541 0.0295,-0.05901 0.08463,-0.09161 0.0559,-0.03339 0.131988,-0.03339 0.07609,0 0.131212,0.03339 0.0559,0.03261 0.08463,0.09161 0.0295,0.05823 0.0295,0.133541 0,0.07609 -0.0295,0.135094 -0.02873,0.05823 -0.08463,0.09084 -0.05512,0.03261 -0.131212,0.03261 -0.07609,0 -0.131988,-0.03261 -0.05513,-0.03261 -0.08463,-0.09084 -0.02873,-0.05901 -0.02873,-0.135094 z"
           style="font-family:'Cutive Mono';-inkscape-font-specification:'Cutive Mono'"
           id="path984" />
      </g>
      <g
         aria-label="bareduino"
         id="text2480"
         style="font-size:2.12009px;line-height:1.25;stroke-width:0.0441685">
        <path
           d="m 10.003498,10.043653 q -0.00414,0 -0.020704,0.0021 l -0.1956529,0.01967 q -0.017598,0.0031 -0.02588,0.01553 -0.00828,0.01242 -0.00828,0.02691 0,0.01656 0.011387,0.02795 0.011387,0.01139 0.028986,0.01139 0.00621,0 0.011387,-0.001 0.00518,-0.001 0.00932,-0.0021 l 0.1325056,-0.0083 v 1.052798 q 0,0.04762 0.011387,0.06418 0.011387,0.01656 0.031056,0.01656 0.016563,0 0.026915,-0.0062 0.01139,-0.0062 0.01863,-0.03002 0.0072,-0.02381 0.0072,-0.0735 0.05383,0.05486 0.131471,0.08903 0.07764,0.03416 0.170808,0.03416 0.119048,0 0.206004,-0.05487 0.08799,-0.05487 0.134577,-0.152174 0.04658,-0.09731 0.04658,-0.222569 0,-0.123188 -0.04762,-0.220497 -0.04762,-0.09834 -0.136646,-0.15321 -0.08799,-0.0559 -0.20704,-0.0559 -0.0942,0 -0.163562,0.02795 -0.06832,0.02795 -0.130435,0.08178 v -0.449277 q 0,-0.04037 -0.04244,-0.04037 z m 0.33851,1.154248 q -0.09938,0 -0.173913,-0.04037 -0.0735,-0.04037 -0.122154,-0.109731 v -0.405798 q 0.106626,-0.133541 0.287786,-0.133541 0.09524,0 0.162526,0.04658 0.06729,0.04658 0.10145,0.125259 0.03416,0.07868 0.03416,0.172878 0,0.09524 -0.03313,0.173914 -0.03313,0.07764 -0.09834,0.124224 -0.06522,0.04658 -0.158386,0.04658 z"
           style="font-family:'Cutive Mono';-inkscape-font-specification:'Cutive Mono'"
           id="path927" />
        <path
           d="m 11.772655,10.778645 -0.07557,0.0052 q -0.168737,0.01139 -0.269152,0.02899 -0.09938,0.0176 -0.167702,0.07246 -0.06832,0.05487 -0.06832,0.162526 0,0.106626 0.06522,0.170808 0.06522,0.06315 0.18116,0.06315 0.107661,0 0.198759,-0.0383 0.09213,-0.0383 0.142857,-0.09524 0.01242,0.0735 0.04866,0.09938 0.03623,0.02485 0.08903,0.02485 0.04658,0 0.08903,-0.01967 0.04348,-0.0207 0.0766,-0.0559 0.01035,-0.01035 0.01035,-0.02588 0,-0.01656 -0.01139,-0.03002 -0.01139,-0.01346 -0.02691,-0.01346 -0.01346,0 -0.02485,0.01242 -0.0176,0.01863 -0.04762,0.0352 -0.03002,0.01553 -0.05694,0.01553 -0.02484,0 -0.03934,-0.01242 -0.01449,-0.01346 -0.01449,-0.04969 V 10.80556 q 0,-0.126294 -0.02691,-0.20911 -0.02692,-0.08385 -0.09524,-0.128365 -0.06729,-0.04451 -0.186337,-0.04451 -0.10559,0 -0.187371,0.02795 -0.08178,0.02795 -0.127329,0.07764 -0.04555,0.04969 -0.04555,0.111801 0,0.03313 0.01553,0.05383 0.01656,0.0207 0.04658,0.0207 0.0352,0 0.04969,-0.04037 0.01449,-0.04037 0.01863,-0.120083 0.05487,-0.02485 0.108696,-0.0352 0.05487,-0.01139 0.120083,-0.01139 0.115943,0 0.162527,0.06418 0.04762,0.06418 0.04762,0.185301 z m 0,0.290891 q -0.0559,0.05901 -0.143893,0.0942 -0.08696,0.03416 -0.17909,0.03416 -0.07143,0 -0.114907,-0.0352 -0.04244,-0.03623 -0.04244,-0.114907 0,-0.07246 0.04969,-0.109731 0.04969,-0.03727 0.13354,-0.05176 0.08489,-0.01553 0.25466,-0.03209 l 0.04244,-0.0041 z"
           style="font-family:'Cutive Mono';-inkscape-font-specification:'Cutive Mono'"
           id="path929" />
        <path
           d="m 13.166034,10.632682 q 0,0.02588 0.01449,0.04037 0.01449,0.01346 0.03416,0.01346 0.0207,0 0.0352,-0.01449 0.01553,-0.01553 0.01553,-0.04348 v -0.142858 q 0,-0.03106 -0.0207,-0.04658 -0.0207,-0.01553 -0.07039,-0.01553 -0.287786,0 -0.405798,0.18116 l -0.0041,-0.10766 q -0.001,-0.02899 -0.0093,-0.04348 -0.0072,-0.01449 -0.03002,-0.01449 -0.01035,0 -0.02381,0.0031 l -0.17702,0.0352 q -0.01449,0.0031 -0.02277,0.01449 -0.0083,0.01035 -0.0083,0.02484 0,0.01656 0.01035,0.02899 0.01139,0.01242 0.03106,0.01242 0.0083,0 0.01242,-0.001 l 0.126294,-0.02588 v 0.649071 h -0.189442 q -0.0207,0 -0.03209,0.01242 -0.01139,0.01242 -0.01139,0.02899 0,0.0176 0.01242,0.03106 0.01242,0.01242 0.0352,0.01242 h 0.631472 q 0.01967,0 0.03106,-0.01242 0.01139,-0.01346 0.01139,-0.03002 0,-0.0176 -0.01139,-0.03002 -0.01035,-0.01242 -0.03002,-0.01242 h -0.347828 v -0.459629 q 0.04141,-0.10352 0.148034,-0.157351 0.106626,-0.05487 0.245342,-0.05487 z"
           style="font-family:'Cutive Mono';-inkscape-font-specification:'Cutive Mono'"
           id="path931" />
        <path
           d="m 13.716761,10.843863 q 0,0.135611 0.05901,0.23499 0.05901,0.09834 0.164597,0.151139 0.106626,0.0528 0.245343,0.0528 0.08799,0 0.188406,-0.03416 0.10145,-0.03416 0.15528,-0.09213 0.01863,-0.0207 0.01863,-0.04348 0,-0.01863 -0.01139,-0.03209 -0.01139,-0.01346 -0.03002,-0.01346 -0.0207,0 -0.04244,0.0176 -0.05901,0.0559 -0.134576,0.08489 -0.07453,0.02795 -0.152174,0.02795 -0.159421,0 -0.257765,-0.08489 -0.09834,-0.08489 -0.10352,-0.248448 l 0.651141,-0.0052 q 0.03623,0 0.05797,-0.02485 0.02174,-0.02588 0.02174,-0.06522 0,-0.110766 -0.04865,-0.188406 -0.04762,-0.07764 -0.132506,-0.116978 -0.08385,-0.04037 -0.191512,-0.04037 -0.126294,0 -0.230849,0.05072 -0.10352,0.05072 -0.165632,0.145963 -0.06108,0.09524 -0.06108,0.223604 z m 0.459629,-0.335405 q 0.161491,0 0.218427,0.08178 0.05694,0.08178 0.06418,0.193582 l -0.639753,0.0041 q 0.01863,-0.132506 0.111801,-0.206005 0.0942,-0.0735 0.245343,-0.0735 z"
           style="font-family:'Cutive Mono';-inkscape-font-specification:'Cutive Mono'"
           id="path933" />
        <path
           d="m 15.734366,11.268295 0.192547,-0.0207 q 0.01863,-0.0041 0.02899,-0.01656 0.01035,-0.01346 0.01035,-0.02899 0,-0.01553 -0.01035,-0.02588 -0.01035,-0.01035 -0.03106,-0.01035 h -0.0062 l -0.15321,0.01139 v -1.093171 q 0,-0.04037 -0.04244,-0.04037 -0.0041,0 -0.0207,0.0021 l -0.195653,0.01967 q -0.0176,0.0031 -0.02588,0.01553 -0.0083,0.01242 -0.0083,0.02691 0,0.01656 0.01139,0.02795 0.01139,0.01139 0.02899,0.01139 0.0062,0 0.01139,-0.001 0.0052,-0.001 0.0093,-0.0021 l 0.132506,-0.0083 v 0.397517 q -0.06211,-0.05383 -0.131471,-0.08178 -0.06832,-0.02795 -0.162526,-0.02795 -0.119048,0 -0.208075,0.0559 -0.08799,0.05487 -0.135611,0.15321 -0.04762,0.09731 -0.04762,0.220497 0,0.12526 0.04762,0.222569 0.04762,0.09731 0.135611,0.152174 0.08903,0.05487 0.208075,0.05487 0.09524,0 0.174949,-0.0352 0.08074,-0.03623 0.128365,-0.09317 l 0.0031,0.06211 q 0.001,0.02588 0.01449,0.03934 0.01346,0.01242 0.03416,0.01242 z m -0.356109,-0.759837 q 0.18116,0 0.287786,0.133541 v 0.405798 q -0.104555,0.150104 -0.291927,0.150104 -0.09317,0 -0.15942,-0.04658 -0.06625,-0.04658 -0.100415,-0.125259 -0.03416,-0.07868 -0.03416,-0.172879 0,-0.0942 0.03416,-0.172878 0.03416,-0.07868 0.10145,-0.125259 0.06729,-0.04658 0.162526,-0.04658 z"
           style="font-family:'Cutive Mono';-inkscape-font-specification:'Cutive Mono'"
           id="path935" />
        <path
           d="m 16.443478,10.470155 q 0,-0.01449 -0.01035,-0.02484 -0.0093,-0.01035 -0.02484,-0.01035 -0.0041,0 -0.01242,0.0021 l -0.18116,0.03623 q -0.01863,0.0041 -0.02795,0.01449 -0.0093,0.01035 -0.0093,0.02484 0,0.0176 0.01346,0.03106 0.01346,0.01346 0.03416,0.01346 0.01139,0 0.0176,-0.0021 l 0.101449,-0.0207 v 0.459629 q 0,0.08592 0.0352,0.151139 0.03623,0.06522 0.104555,0.10145 0.06832,0.03623 0.161492,0.03623 0.09731,0 0.187371,-0.04451 0.09006,-0.04451 0.135611,-0.111802 l 0.0052,0.09006 q 0.001,0.02588 0.01449,0.03934 0.01346,0.01242 0.03416,0.01242 h 0.0072 l 0.192547,-0.0207 q 0.01863,-0.0041 0.02899,-0.01656 0.01035,-0.01346 0.01035,-0.02899 0,-0.01553 -0.01035,-0.02588 -0.01035,-0.01035 -0.03106,-0.01035 h -0.0062 l -0.153209,0.01139 v -0.707042 q 0,-0.01449 -0.01035,-0.02484 -0.0093,-0.01035 -0.02484,-0.01035 -0.0041,0 -0.01242,0.0021 l -0.180125,0.03623 q -0.01967,0.0041 -0.03002,0.01553 -0.0093,0.01035 -0.0093,0.02484 0,0.0176 0.01346,0.03106 0.01346,0.01346 0.0352,0.01346 0.0093,0 0.01863,-0.0031 l 0.100415,-0.0207 v 0.49172 q -0.02278,0.04762 -0.07454,0.08696 -0.05072,0.03934 -0.114907,0.06211 -0.06418,0.02277 -0.125259,0.02277 -0.100415,0 -0.152175,-0.05486 -0.05072,-0.0559 -0.05072,-0.145964 z"
           style="font-family:'Cutive Mono';-inkscape-font-specification:'Cutive Mono'"
           id="path937" />
        <path
           d="m 17.97868,10.138891 q 0,0.0352 0.02484,0.06004 0.02484,0.02484 0.06108,0.02484 0.03623,0 0.06004,-0.02484 0.02485,-0.02485 0.02485,-0.06004 0,-0.03623 -0.02485,-0.06108 -0.02484,-0.02484 -0.06004,-0.02484 -0.0352,0 -0.06108,0.02484 -0.02484,0.02484 -0.02484,0.06108 z m 0.498967,1.126298 q 0.01967,0 0.03106,-0.01242 0.01139,-0.01242 0.01139,-0.03002 0,-0.01656 -0.01139,-0.02899 -0.01035,-0.01346 -0.03002,-0.01346 H 18.13396 v -0.721535 q 0,-0.01553 -0.01035,-0.02381 -0.01035,-0.0093 -0.02692,-0.0093 -0.0083,0 -0.01139,0.001 l -0.41201,0.05694 q -0.01656,0.0021 -0.02484,0.01449 -0.0083,0.01139 -0.0083,0.02692 0,0.0176 0.01139,0.03106 0.01139,0.01242 0.03106,0.01242 l 0.0072,-0.001 0.344722,-0.04658 v 0.659423 h -0.385095 q -0.0207,0 -0.03209,0.01242 -0.01139,0.01139 -0.01139,0.02795 0,0.0176 0.01242,0.03106 0.01242,0.01346 0.0352,0.01346 z"
           style="font-family:'Cutive Mono';-inkscape-font-specification:'Cutive Mono'"
           id="path939" />
        <path
           d="m 19.55736,11.180303 h -0.151139 q -0.0207,0 -0.03209,0.01242 -0.01139,0.01139 -0.01139,0.02795 0,0.0176 0.01242,0.03106 0.01242,0.01346 0.0352,0.01346 h 0.357144 q 0.0207,0 0.03209,-0.01242 0.01139,-0.01346 0.01139,-0.03106 0,-0.01656 -0.01139,-0.02899 -0.01035,-0.01242 -0.03002,-0.01242 h -0.112837 v -0.466876 q 0,-0.138716 -0.07246,-0.214286 -0.07246,-0.07557 -0.218427,-0.07557 -0.07039,0 -0.136646,0.02381 -0.06625,0.02381 -0.116978,0.06522 -0.05072,0.04037 -0.07661,0.0911 l -0.0052,-0.124224 q -0.0021,-0.04037 -0.04037,-0.04037 -0.0041,0 -0.01863,0.0021 l -0.169773,0.03416 q -0.0176,0.0041 -0.02588,0.01656 -0.0083,0.01139 -0.0083,0.02588 0,0.01656 0.01139,0.02795 0.01139,0.01139 0.02898,0.01139 0.01035,0 0.0207,-0.0031 l 0.111802,-0.02278 v 0.649071 h -0.111802 q -0.0207,0 -0.03209,0.01242 -0.01139,0.01139 -0.01139,0.02795 0,0.0176 0.01242,0.03106 0.01242,0.01346 0.0352,0.01346 h 0.313666 q 0.02381,0 0.03727,-0.01242 0.01449,-0.01346 0.01449,-0.03106 0,-0.01656 -0.01346,-0.02899 -0.01242,-0.01242 -0.03623,-0.01242 H 19.03976 v -0.43582 q 0,-0.05383 0.04244,-0.108696 0.04244,-0.05487 0.118013,-0.0911 0.07661,-0.03623 0.170808,-0.03623 0.09213,0 0.138717,0.05176 0.04762,0.05176 0.04762,0.145963 z"
           style="font-family:'Cutive Mono';-inkscape-font-specification:'Cutive Mono'"
           id="path941" />
        <path
           d="m 20.118439,10.853179 q 0,0.129401 0.05487,0.226709 0.05486,0.09731 0.154244,0.150104 0.09938,0.0528 0.229815,0.0528 0.130435,0 0.229814,-0.0528 0.09938,-0.05279 0.154245,-0.150104 0.05487,-0.09731 0.05487,-0.226709 0,-0.130435 -0.05487,-0.227744 -0.05486,-0.09731 -0.154245,-0.149068 -0.09938,-0.0528 -0.229814,-0.0528 -0.130435,0 -0.229815,0.0528 -0.09938,0.05176 -0.154244,0.149068 -0.05487,0.09731 -0.05487,0.227744 z m 0.111802,0 q 0,-0.100414 0.0383,-0.178054 0.03934,-0.07867 0.112837,-0.122154 0.07453,-0.04451 0.175984,-0.04451 0.101449,0 0.174949,0.04451 0.07453,0.04348 0.112837,0.122154 0.03934,0.07764 0.03934,0.178054 0,0.10145 -0.03934,0.180125 -0.0383,0.07764 -0.112837,0.121119 -0.0735,0.04348 -0.174949,0.04348 -0.10145,0 -0.175984,-0.04348 -0.0735,-0.04348 -0.112837,-0.121119 -0.0383,-0.07867 -0.0383,-0.180125 z"
           style="font-family:'Cutive Mono';-inkscape-font-specification:'Cutive Mono'"
           id="path943" />
      </g>
    </g>
    <g
       id="g8030"
       transform="matrix(0.01063728,0,0,0.01063728,5.6941959,-1.8417549)">
      <path
         d="m 406.19,899.28 c 0,14.69 -6.26,3.86 -6.27,0 0,-3.69 -0.92,-2.68 -9.69,-10.64 -5.51,-5 -5.39,3.32 -4.82,4.57 2.52,5.56 2.51,11.51 3.07,17.44 2.75,29.21 -3.34,29.85 -5.3,36.92 -1.41,5.09 -4.2,-1.75 -5.21,2.26 -2.84,11.28 -5,-0.47 -5.73,-0.46 -1.37,0 -0.45,5.81 -3,6.08 -4,0.42 -3.61,-9 -2.91,-13.07 0.11,-0.64 0.68,-4 -0.1,-4.06 -1.06,-0.1 -0.89,3.35 -3.47,9.34 -1.42,3.28 -3.08,2.45 -4,-0.09 -2.24,-6.31 2.15,-10.34 -1.48,-12.67 -1.2,-0.77 -7.21,-21 -7.6,-24.23 -0.84,-7.11 -10.23,-14.29 -16.52,-30.45 -7.22,-18.56 0.45,-9.64 -38.11,-3.39 -3.66,0.59 -4.18,-3.21 -2.16,-4.93 2.62,-2.25 3.82,-4.51 4.91,-4.42 27.86,2.24 49.59,-29.27 84.58,-35.57 11.06,-2 9,6 22.95,7.41 3,0.32 5.32,5.19 23.57,0.83 21.68,-5.16 7.33,-3.33 27.15,3.62 2.46,0.86 8.92,1.85 8.12,4.35 -0.55,1.74 -7.43,-0.07 -8.49,-0.34 -6.07,-1.5 -6.95,3 -20.12,1.34 a 56.84,56.84 0 0 0 -23,2.11 c -5.77,1.62 18.68,35.13 18.45,35.85 -0.52,1.64 -7.24,-0.95 -3.53,4.41 0.93,1.36 3.31,2.93 2.05,4.55 -1.87,2.39 -6.65,-2.41 -8.38,-4 -0.66,0.74 -0.36,0.94 2.44,8.65 1.76,4.88 -3.17,6.52 -7.64,-3.4 -4,-8.84 3.78,16.33 -2.93,10.43 -4,-3.52 -4,-8 -5.27,-14.33 a 7.37,7.37 0 0 0 -0.62,-1.42 c -1.08,1.91 -0.92,-0.15 -0.92,7.37 z m -39.61,35.84 c 0.11,0.45 -0.17,1 0.33,1.36 0.42,-1 1.72,-3.37 0.38,-3.15 -1.09,0.18 -0.54,1.15 -0.71,1.79 z"
         id="path7989" />
      <path
         d="m 730.45,831.58 c 0,14.7 -7.09,3 -6.87,-0.45 a 3.18,3.18 0 0 0 -2.11,-3.46 c -3.2,-1.55 -5.48,-4.36 -8.34,-6.4 -5.49,-3.93 -4.9,3.9 -4.36,5.15 4.51,10.45 4.87,42.17 0.24,45.53 -3.92,2.84 -0.74,8.38 -6.28,6.39 -3.2,-1.15 -1.67,5.79 -4.71,5.45 -4.09,-0.46 -1.89,-9.89 -4.75,-0.92 -1.41,4.43 -6.43,0.39 -5.33,-7.16 3.26,-22.46 -3.09,11.19 -7.22,2.17 -2.67,-5.83 2,-10.4 -1.79,-12.53 a 2.44,2.44 0 0 1 -1.31,-1.71 c -1.3,-7.17 -5.53,-13.47 -6.51,-20.64 -1.11,-8.15 -7.22,-7.78 -19.28,-32.45 -2.19,-4.49 -1.7,-8.55 -6.46,-7.17 -54.74,15.82 -34.57,-3 -19.14,-2.2 15.09,0.79 13.65,-5.52 19.11,-7.25 5.13,-1.63 56.67,-33.71 69.61,-24.52 9.18,6.51 12.84,4.29 17.72,6.57 14,6.5 32.28,-7.49 39.19,-1.34 6,5.35 20.23,4.7 19.24,8.63 -0.48,2 -5.85,0.17 -7.46,-0.15 -7.55,-1.48 -5.89,1 -11.89,1 -7.67,0 -15.34,0 -23,-0.07 -4,0 -7.55,2 -11.51,2.2 -4.63,0.23 5.69,14.06 6.38,14.89 2.55,3.12 3.75,7.13 6.27,10.32 6.46,8.17 7.34,7.19 6.77,8.91 -0.57,1.72 -9,-1.29 -2.63,5.18 2.19,2.22 2.17,3.72 -1.86,3.27 -4.03,-0.45 -4.36,-4.68 -5.93,-3.52 -1.06,0.79 0.56,1.86 2.59,7.59 1.52,4.31 -2.33,7.05 -8.53,-3.86 -3.61,-6.37 4.62,17.44 -2.9,10.45 -4.56,-4.24 -3.69,-8.1 -5.43,-13.27 -0.16,-0.5 0.22,-1.49 -0.74,-1.34 -0.73,0.1 -0.71,1 -0.72,1.6 0,1.7 0,3.41 0,5.11 z m -41.56,33.17 c 0.08,0.48 0.17,1 0.25,1.5 0.57,-0.19 1.42,-2.26 0.3,-2.42 -0.72,-0.11 -0.33,0.58 -0.55,0.92 z"
         id="path7991" />
      <path
         d="m 162.57,256 c 0,5.2 0.3,6.34 -1.22,6.8 -2.1,0.63 -5.21,-4.46 -5,-7.49 a 4.34,4.34 0 0 0 -2.66,-4.53 c -2.83,-1.55 -4.71,-4.28 -7.16,-6.33 -5.27,-4.4 -4.71,4.48 -4,5.75 3.1,5.55 6.09,42.84 -1,48.9 -2,1.74 0.24,7.77 -4.73,5.74 -3.14,-1.28 -2,10 -6.12,4.36 -1.28,-1.76 0.21,-3.82 -1.3,-3.83 -0.67,0 -1.17,2.74 -1.23,3.34 -0.4,3.81 -3.09,3.61 -4.3,0.55 -1.73,-4.41 0.72,-20.27 -1.57,-12.58 -2.68,9 -3,9.55 -4.25,9.47 -2.21,-0.14 -3.27,-5.37 -2.27,-9.79 1.3,-5.74 -1.86,-4.51 -2.23,-6.67 -5.86,-34.53 -17.93,-35.09 -26.29,-62.07 -1.44,-4.61 -2.82,-1.41 -23.6,3.49 -2.29,0.54 -12.69,3.13 -13.39,0.78 -1.09,-3.69 3.63,-9.83 14.71,-8.77 12.39,1.18 12.94,-4.85 18.16,-7.55 9.37,-4.87 53.64,-35.05 64.63,-26.3 7,5.55 23.23,9.14 24.37,9.13 16.27,-0.21 23.68,-9.73 31.46,-1.81 2.58,2.63 11,3.78 14.23,5.14 3.71,1.56 2.9,4.14 -1.2,3.47 -5.4,-0.89 -7.19,-2.66 -10.78,-0.86 -3.59,1.8 -17.45,0.94 -20.21,0.44 -4.74,-0.86 -8.18,1 -15.28,2.38 -2.71,0.51 -2.85,0.78 -1.94,3.26 4.06,11 19.16,33 19.16,33 -0.38,1.39 -1.56,0.75 -2.41,0.8 -6.41,0.34 2.24,5.39 0.92,7.64 -2.64,4.52 -10.74,-7.8 -8.28,-1.3 3.17,8.43 3.21,8.92 2.23,9.5 -3.63,2.12 -6.87,-4.22 -7.72,-7.37 -0.61,-2.24 -1.83,-1.51 -1.28,0.37 5.28,18.22 -4.41,12.28 -5.65,1.67 -0.82,-7 -2.42,-7 -2.55,-4.46 -0.09,1.91 0,3.83 0,5.74 z m -39.06,35.25 c 0.35,0.46 -0.33,1.25 0.38,1.8 0.55,-1.66 1.56,-4 0.34,-3.73 -1.05,0.19 -0.52,1.13 -0.72,1.91 z"
         id="path7993" />
      <path
         d="m 977.33,811.56 c -3.43,8.6 3.82,12 16,16.18 a 4.67,4.67 0 0 1 1.7,8.13 c -1.13,1 -1,1 6.63,2.82 21.73,5.14 5.17,2.3 23.61,2.94 6.68,0.23 5.53,5.46 9.12,6.85 2.93,1.13 4.2,3.93 6.22,6 1.06,1.07 0.45,2.26 -0.38,3.11 -2.86,2.92 -2.87,-1.84 -11.07,-3.53 -16.44,-3.39 -5.44,-6.31 -41.8,-14.44 -15.47,-3.45 -19.48,3.35 -41.07,2.78 -18.61,-0.49 -28.29,2.91 -37.58,0.77 a 6.61,6.61 0 0 0 -3.47,-0.07 c -4,1.42 -11.75,-4.58 -8.56,-13.43 2.29,-6.37 -22.8,-6.32 -31,-5.85 -3.5,0.2 -3,-3.37 -0.17,-3.72 40,-4.85 12.61,-1.81 43.39,-9.58 4.55,-1.14 12.66,-4 8,-6.41 -4.06,-2.08 -6.76,-4.32 -1.22,-32.07 0.21,-1 0.68,-6.73 2,-6.77 5.36,-0.19 3.34,-36.43 8.45,-18.28 1.54,5.47 2.57,-6.47 5,-6.65 2.72,-0.21 1.69,10.44 4,5.9 3.2,-6.41 5.24,-7.67 5.83,-0.19 0.45,5.6 3.75,-4 6.24,-3.31 2.91,0.88 -0.86,5.88 4.8,6 3.32,0.07 0.67,3.3 5,6.43 a 9.26,9.26 0 0 1 2.52,3.18 c 1.42,2.47 4,3.91 6,5.89 8.63,8.54 16.91,34.51 11.81,47.32 z"
         id="path7995" />
      <path
         d="m 99.7,940.9 c 4.13,-1 63.36,-33.54 78,-23.6 7.14,4.83 13.67,4.78 15.14,5.47 14.61,6.85 32.46,-4.65 38.61,0.16 5.3,4.14 12.17,4.67 17.73,6.52 2.32,0.76 2,3 -0.56,2.65 -20.13,-2.58 -10.46,1 -25.54,-0.51 -21.75,-2.13 -12.07,-0.23 -24,0.58 -5.15,0.36 2.83,10.83 3.87,12 3.35,3.62 5.43,11 12.16,16.5 5.63,4.57 -7.86,-0.2 -2.45,5.77 3.42,3.77 0.8,4.94 -2.77,3 -2.34,-1.26 -6.75,-8 -1.81,4.22 2.08,5.15 -4.93,3.45 -7.85,-3.73 -2.24,-5.49 0,6.76 0,7.55 -0.12,4.91 -6.34,1.22 -7.42,-7.6 -0.61,-5 -2.42,-6.9 -2.77,5.18 -0.2,6.87 -6.86,-0.13 -6.36,-4.54 a 1.9,1.9 0 0 0 -1.06,-2.13 c -6.24,-2.57 -11.28,-11.48 -13.33,-5.15 a 4,4 0 0 0 0.13,3.38 c 2.18,4 1.91,8.45 2.38,12.75 2.77,25.58 -5.29,26.48 -6.91,32.13 -1,3.41 -3.81,-3.31 -5.39,2 -0.41,1.39 -1,2.72 -2.39,2.56 -3.46,-0.38 -1.42,-8.73 -4.71,-0.9 -1.46,3.47 -5.38,0.44 -4.86,-5.43 0.33,-3.82 1.28,-4.89 0.72,-7.08 -1.41,1.42 -4.68,13.23 -7.66,7.69 -2.98,-5.54 3,-9 -1.79,-11.3 a 1,1 0 0 1 -0.49,-0.77 c 0.35,-2.55 -1.56,-4.26 -2.24,-6.38 -1.73,-5.41 -4.24,-10.62 -4.67,-16.4 0,0 -13.93,-15.06 -18.75,-29.58 -1.23,-3.71 -2.36,-1.59 -24.61,2.09 -7.87,1.29 -18.74,2.12 -12.7,-3.08 9.18,-7.84 10.65,-0.54 24.35,-4.02 z m 49.82,59.1 c 0.29,-0.64 0.62,-1.39 0,-1.86 -0.36,0.64 -0.69,1.32 0,1.86 z"
         id="path7997" />
      <path
         d="m 649.33,439.45 c -1.78,1.8 -2.66,9.63 -5.42,9.36 -2.46,-0.24 -3,-4.82 -2.56,-6.76 0.54,-2.26 1.15,-4.66 -1.65,-6.11 a 1.34,1.34 0 0 1 -0.53,-1.08 c 0.29,-2.09 -1.19,-3.46 -1.86,-5.17 -2.11,-5.35 -5,-10.51 -5.26,-16.45 a 1.69,1.69 0 0 0 -0.85,-1.61 c -3.72,-1.79 -5.17,-5.67 -7.82,-8.43 -26,-27.21 6.76,-23.07 -41.73,-15.27 -15.49,2.49 -7.59,-8.38 6.17,-7.44 6.12,0.42 11.94,-0.06 16.89,-4.63 2.8,-2.59 6.95,-3 10.41,-4.65 C 688.26,336.85 666.43,357 690,357.66 a 4.2,4.2 0 0 1 1.52,0.44 c 10.43,4.88 26.25,-1.64 33,-2 7,-0.34 -0.11,-0.19 17.87,5.39 14.88,4.61 2,4.19 -0.87,3.11 -4.58,-1.7 -10.61,2.43 -20.41,1 -12.64,-1.82 -19.92,1.16 -23.64,1.69 -7.16,1 18.64,28.68 18.12,29.89 -0.44,1 -1.69,0.46 -2.59,0.57 -5.75,0.68 6,7.16 0,7.06 a 7.57,7.57 0 0 1 -5.78,-2.89 c -5.5,-6.45 6.44,12.61 -1.69,9 -3.51,-1.55 -3.79,-4.4 -5.5,-5.61 -0.24,-3.68 -1.73,-1.51 -0.36,0.31 0.78,7 1.93,11.3 -2.21,8.37 -5.64,-4 -5.38,-17.79 -6.88,-11.75 -1.09,4.39 0.68,9.92 -1.34,10.74 -2.02,0.82 -5.23,-2.63 -5.33,-6.6 0,-1 -0.18,-2.08 -1.17,-2.44 -5.5,-2 -10.12,-8.86 -12.56,-6.78 a 4.22,4.22 0 0 0 -0.84,5.05 c 3.73,7.4 4.07,27.62 2.18,36.15 -1.19,5.4 -2.46,2.37 -4.49,8.1 -1.85,5.19 -4.19,-1.56 -5.6,2.49 -0.68,2 -0.88,3.63 -2.56,3.57 -3.36,-0.12 -2.31,-8 -4.45,-1.74 -2.28,6.71 -7,-1.36 -5.28,-6.51 0.52,-1.54 1.09,-3.27 0.13,-4.93 0.33,0 0.68,0 0.31,-0.45 -0.07,0.22 -0.16,0.39 -0.25,0.56 z m 1.34,-2.57 c -0.41,-3.54 -1.32,0.43 -0.31,0.74 a 6.1,6.1 0 0 0 0.31,-0.74 z"
         id="path7999" />
      <path
         d="m 937.52,498.91 c 5,1.15 2.21,3.71 8.14,6.15 8.32,3.44 5.56,11 0.68,7 -5.51,-4.49 -13.08,-1.58 -18.58,-6.51 -3.61,-3.24 -41.74,-11.77 -43,-11 -8,4.82 -76.5,3.33 -77.14,3.32 -5,0 -10.74,-6.32 -7.84,-11.48 2.78,-4.93 -21.08,-6.4 -26.37,-6.08 -5.29,0.32 -7.35,1.72 -7.61,-1 -0.14,-1.44 -0.83,-2.65 17.15,-2.71 11.72,0 6.75,-2.47 30.34,-6.5 5.61,-1 13.46,-3.3 8.55,-5.18 -7.13,-2.72 -5.07,-7.86 -0.27,-30 1.29,-5.93 3.33,-1 4.36,-4.74 1.58,-5.63 2.56,-24.81 5.89,-16.17 2.45,6.35 2.1,3.43 4.11,-1.28 0.68,-1.59 2.48,-2.5 3.75,0.31 0.54,1.19 -0.19,3.37 1.25,3.58 1.79,0.27 2.57,-6.18 5.24,-5 2.94,1.29 1,5.09 2.31,5.74 1.54,0.75 3.46,-5 6.23,-3.9 2.77,1.1 -0.55,5.12 3.57,4.93 a 3.48,3.48 0 0 1 4,3.2 c 0.15,0.86 10.16,9.6 11.69,10.6 9,5.88 5.33,8.9 8,13 15,22.69 -7.69,31.38 9.17,37.57 11.24,4.14 13.09,3.18 14.15,7.05 1.51,5.57 -9.43,2 6.14,6.13 17.1,4.46 18.13,1.13 26.09,2.97 z"
         id="path8001" />
      <path
         d="m 461.42,253 c -0.11,-3.8 20.27,-0.91 30.49,-5.62 7.19,-3.31 20,-3.74 25.43,-6.68 2.91,-1.57 0.57,-3.15 -0.07,-3.33 -5.36,-1.51 -5.6,-5 -0.76,-28.45 0.14,-0.64 1.2,-4.62 2,-4.52 6,0.73 2.46,-18.74 6.66,-18.79 2.32,0 2.34,7.58 4,3.87 6,-13.35 4.67,-0.67 6.64,-0.37 1.38,0.21 2.62,-5.74 5,-5.07 3.59,1 0.74,8.81 4.46,4.45 6.67,-7.84 4.67,2.55 8.12,1.84 3.91,-0.8 1.17,2.43 11.11,10.47 3.7,3 8.28,4.95 10.67,9.49 0.83,1.57 0.43,3.29 1.3,4.85 3.3,6 9.36,16.36 4.67,28.54 -0.75,2 -0.06,3.9 -0.77,5.81 -1,2.59 15.85,8.14 18.59,8.51 2.45,0.32 3.59,4.18 1.91,6.1 -0.83,0.94 -1.48,1.41 0.29,1.77 5.92,1.21 11.78,2.77 17.75,3.56 9.49,1.26 15.58,-2.57 19.05,3.35 a 4.82,4.82 0 0 0 2.6,2.24 c 2.8,1 4.72,3.08 6.7,5.08 2.44,2.46 -1.7,4.53 -3.76,2.92 -5.7,-4.44 -14.68,-1.46 -19.7,-6.89 -1.46,-1.57 -41.45,-11.5 -43.64,-9.61 -4.12,3.56 -77.31,5.11 -74.38,4.41 -5.44,1.29 -12.3,-5.63 -10.17,-10.54 1,-2.31 2.46,-4.39 -11.26,-5.67 -20.74,-1.97 -22.83,1.53 -22.93,-1.72 z"
         id="path8003" />
      <path
         d="m 376.16,305.25 c 9.13,2.49 0.4,7.17 3.64,8.28 21.69,7.39 32.83,-0.18 37.14,6.88 0.93,1.52 14.77,8.65 8.49,10.73 a 3.24,3.24 0 0 1 -3.32,-0.58 c -5.13,-4.57 -13.69,-1.33 -18.66,-6.22 -2,-2 -28.08,-8.12 -31.43,-8.63 -28.28,-4.3 -105.72,15.23 -96.81,-8.51 1.4,-3.73 -5.84,-3.32 -9.33,-4.18 -7.54,-1.86 -8.65,-2.27 -22.38,-0.83 -4.18,0.44 -4.07,-3.19 -0.42,-3.39 19.07,-1 23.08,-1.71 27.65,-3.71 8.36,-3.68 18.62,-3.45 25.16,-6.46 6.86,-3.16 -4.64,-1.57 -3.62,-11.57 0.06,-0.65 2.57,-25.4 6.42,-25 3.42,0.37 2.22,-19.94 5.48,-19.54 2.46,0.3 0.76,5.14 3.15,5.25 2,0.09 1.64,-6.83 4.54,-6.42 2.75,0.39 1.14,5.57 2.87,5.81 1.3,0.18 2.5,-6 5.07,-5.38 2.57,0.62 1.37,5.12 2.69,5.55 1.9,0.62 3.08,-4.75 5.87,-3.9 3.22,1 0.07,5.18 3.73,4.73 4.69,-0.58 2.56,3.89 6.72,5.77 0.74,0.34 1.67,0.67 2,1.51 1.3,3.22 4.63,4 7,6 10.84,9.1 4.7,7 8.82,13.53 17.27,27.31 -15,30.83 19.53,40.28 z"
         id="path8005" />
      <path
         d="m 1132.06,669.06 c 8.22,-0.5 6.72,4.29 10.88,5.85 2.59,1 10.1,6.34 5.72,8.15 a 2.88,2.88 0 0 1 -3.05,-0.3 c -5.18,-4.61 -13.11,-1.67 -18.7,-6.11 -4.17,-3.31 -41.53,-12.67 -47.64,-9.19 -46.54,1.54 -79.14,9.54 -81.8,-4.48 -0.69,-3.69 3.41,-5.54 -1.22,-6.62 -14.7,-3.4 -21.4,-3.27 -29.29,-2.11 -4.42,0.66 -5.5,-3.45 1.48,-3.6 19.41,-0.42 22.76,-2.18 26.87,-4 5.61,-2.53 19,-3.45 24.47,-6.24 2.7,-1.38 -0.48,-3.64 -1.12,-3.81 -3.41,-0.91 -5.82,-2.19 0.43,-29.38 1.26,-5.53 3.21,-0.22 4.23,-4.84 2.59,-11.75 0.58,-10.92 2.57,-16 2.23,-5.63 3.19,3.71 4.43,3.7 1.67,0 3.07,-11 6.17,-5 1,1.84 -0.38,3.55 1.47,3.73 1.85,0.18 2.23,-5.71 5.07,-4.88 2.08,0.61 2,3.9 2.12,4.6 0.33,3.29 2.69,-1.28 4.36,-2.54 4.86,-3.67 1.52,5.14 6.6,4.18 3.73,-0.71 1.65,4.18 6,5.74 a 1.47,1.47 0 0 1 0.8,0.48 c 2.57,4.63 7.78,6.21 11.27,9.8 5.3,5.44 2.37,5.57 4.9,9.59 9.21,14.67 5.05,24 3.51,33.41 -0.66,4 19.84,7.54 20.85,10.94 1.8,6.08 -7.11,4.16 5.33,6.6 9.8,1.97 8.84,3.27 23.29,2.33 z"
         id="path8007" />
      <path
         d="m 640.31,987 c 6.07,0.14 5,5 9.44,6.26 1.48,0.42 9.26,5.63 5.14,7.6 a 2.94,2.94 0 0 1 -3.07,-0.18 c -3.62,-3 -8.12,-2.82 -12.35,-3.52 -7.07,-1.18 -5.23,-3.25 -10.93,-4.79 -60.34,-16.33 -30.61,-2.82 -77.4,-5 -11,-0.52 -44.25,7.29 -47.41,-5.72 -1.05,-4.32 3.46,-6.53 -1.18,-7.41 -26.58,-5 -27.27,-1.85 -29.65,-2.13 -1.15,-0.14 -2.88,0.73 -3.16,-1.14 -0.49,-3.35 13.43,-2.47 23.12,-3.77 4.6,-0.61 8.61,-3 13,-4.23 5.35,-1.53 25.38,-3.09 20.34,-7.49 -2.44,-2.13 -5.46,-0.7 -4.81,-7.76 0.37,-4 3.38,-24.91 4.9,-25.12 6,-0.81 3.57,-13 5.61,-18.13 1.19,-3 2.23,-2 2.89,0 3.24,9.51 2.67,-3.69 6.3,-3 2.59,0.46 1.54,5.32 2.63,5.56 1.91,0.43 2.23,-5.63 5.37,-5 3.14,0.63 1.15,5 2.76,5.52 1.32,0.43 1,-1.24 3.53,-3.36 1.78,-1.52 3.42,-1.09 3.61,1.18 0.19,2.27 0.82,3.15 3.27,2.79 3.1,-0.47 1.58,2.89 6,5.83 0.27,0.18 0.64,0.29 0.79,0.53 2.73,4.48 7.8,6.22 11.33,9.76 5.92,5.94 1.81,5.3 5.41,10.73 4.71,7.09 7.12,17.45 2.83,32.23 -0.8,2.76 14.58,7.41 17.08,8.15 8.26,2.45 0.38,7.44 2.82,8 23.67,5.61 15.64,3.21 31.79,3.61 z"
         id="path8009" />
      <path
         d="m 745.69,666.34 c -0.11,-2.74 1.45,-1.07 23.62,-3.63 4.55,-0.52 8.59,-3 13,-4.19 4.41,-1.19 24.71,-3 19.35,-7.51 -1.37,-1.16 -5.45,-0.09 -4.53,-9.25 0.21,-2.06 2.65,-24.33 6.36,-23.89 3.11,0.37 3.11,-26.79 6.7,-18.38 0.27,0.64 1.56,6.67 3,3 5,-12.7 5.19,0 6.39,0.12 1.59,0.13 2.25,-5.61 5.05,-5 1.74,0.37 2,2.27 2,3.93 0.18,5.38 4.2,-3.64 6.68,-2.47 3,1.42 -0.49,5.07 4.11,4.8 4,-0.24 2.69,3.81 5,5 1.83,0.93 3,2.5 4.31,4 2,2.28 13.33,8.44 12.93,12.94 -0.44,5.06 12.33,14.42 4.57,36.91 -0.38,1.12 0.78,1.53 1.57,2.09 10.63,7.45 20.14,3.86 19.47,11 -0.27,2.89 -3.38,2.73 0.5,3.57 42.9,9.31 19.59,-6.33 45.6,14.5 1.71,1.38 -1.49,4.35 -3.24,2.92 -5.89,-4.82 -15,-2.33 -19,-6.2 -3.06,-3 -27.68,-8.42 -31.9,-9.11 -28.18,-4.59 -105.31,15.83 -97.11,-8.85 0.83,-2.49 -1.55,-2.63 -2.79,-2.83 -3.58,-0.59 -10,-2.08 -15,-2.7 -7.15,-0.88 -16.51,2.4 -16.64,-0.77 z"
         id="path8011" />
    </g>
  </g>
</svg>
