M48
; DRILL file {KiCad (6.0.10-0)} date 
; FORMAT={-:-/ absolute / metric / decimal}
; #@! TF.CreationDate,2024-10-12T01:56:02-04:00
; #@! TF.GenerationSoftware,Kicad,Pcbnew,(6.0.10-0)
; #@! TF.FileFunction,Plated,1,4,PTH
FMAT,2
METRIC
; #@! TA.AperFunction,Plated,PTH,ViaDrill
T1C0.400
; #@! TA.AperFunction,Plated,PTH,ComponentDrill
T2C0.800
; #@! TA.AperFunction,Plated,PTH,ComponentDrill
T3C1.000
%
G90
G05
T1
X44.831Y-68.453
X45.212Y-74.295
X45.974Y-72.39
X46.723Y-71.374
X47.117Y-86.233
X47.244Y-82.296
X47.879Y-63.627
X48.133Y-79.502
X48.895Y-67.437
X49.022Y-55.118
X49.403Y-52.705
X50.546Y-76.581
X50.673Y-72.39
X51.308Y-59.182
X51.562Y-83.439
X51.816Y-51.562
X51.816Y-76.327
X52.07Y-71.755
X52.451Y-81.026
X52.578Y-75.057
X52.832Y-77.343
X54.161Y-74.989
X54.229Y-67.564
X55.245Y-66.04
X55.88Y-79.502
X56.619Y-70.754
X56.769Y-52.959
X56.769Y-56.388
X57.15Y-78.486
X57.404Y-84.328
X57.531Y-66.802
X58.801Y-60.96
X59.309Y-76.073
T2
X49.593Y-64.008
X54.473Y-64.008
T3
X43.18Y-52.07
X43.18Y-54.61
X43.18Y-57.15
X43.18Y-59.69
X43.18Y-62.23
X43.18Y-64.77
X43.18Y-67.31
X43.18Y-69.85
X43.18Y-72.39
X43.18Y-74.93
X43.18Y-77.47
X43.18Y-80.01
X43.18Y-82.55
X43.18Y-85.09
X43.18Y-87.63
X49.53Y-85.09
X49.53Y-87.63
X52.07Y-85.09
X52.07Y-87.63
X54.61Y-85.09
X54.61Y-87.63
X60.96Y-52.07
X60.96Y-54.61
X60.96Y-57.15
X60.96Y-59.69
X60.96Y-62.23
X60.96Y-64.77
X60.96Y-67.31
X60.96Y-69.85
X60.96Y-72.39
X60.96Y-74.93
X60.96Y-77.47
X60.96Y-80.01
X60.96Y-82.55
X60.96Y-85.09
X60.96Y-87.63
T0
M30
