%TF.GenerationSoftware,KiCad,Pcbnew,(5.1.6-0-10_14)*%
%TF.CreationDate,2021-08-14T22:27:43-04:00*%
%TF.ProjectId,bareduino,62617265-6475-4696-9e6f-2e6b69636164,rev?*%
%TF.SameCoordinates,Original*%
%TF.FileFunction,Soldermask,Top*%
%TF.FilePolarity,Negative*%
%FSLAX46Y46*%
G04 Gerber Fmt 4.6, Leading zero omitted, Abs format (unit mm)*
G04 Created by KiCad (PCBNEW (5.1.6-0-10_14)) date 2021-08-14 22:27:43*
%MOMM*%
%LPD*%
G01*
G04 APERTURE LIST*
%ADD10C,1.600000*%
%ADD11C,0.100000*%
%ADD12O,1.800000X1.800000*%
%ADD13R,1.800000X1.800000*%
%ADD14R,1.160000X0.750000*%
%ADD15R,1.300000X0.750000*%
G04 APERTURE END LIST*
D10*
%TO.C,Y1*%
X53394000Y-80518000D03*
X48514000Y-80518000D03*
%TD*%
D11*
%TO.C,U2*%
G36*
X50213845Y-64747666D02*
G01*
X50673464Y-64288047D01*
X51875545Y-65490128D01*
X51415926Y-65949747D01*
X50213845Y-64747666D01*
G37*
G36*
X49648160Y-65313352D02*
G01*
X50107779Y-64853733D01*
X51309860Y-66055814D01*
X50850241Y-66515433D01*
X49648160Y-65313352D01*
G37*
G36*
X49082474Y-65879037D02*
G01*
X49542093Y-65419418D01*
X50744174Y-66621499D01*
X50284555Y-67081118D01*
X49082474Y-65879037D01*
G37*
G36*
X48516789Y-66444722D02*
G01*
X48976408Y-65985103D01*
X50178489Y-67187184D01*
X49718870Y-67646803D01*
X48516789Y-66444722D01*
G37*
G36*
X47951103Y-67010408D02*
G01*
X48410722Y-66550789D01*
X49612803Y-67752870D01*
X49153184Y-68212489D01*
X47951103Y-67010408D01*
G37*
G36*
X47385418Y-67576093D02*
G01*
X47845037Y-67116474D01*
X49047118Y-68318555D01*
X48587499Y-68778174D01*
X47385418Y-67576093D01*
G37*
G36*
X46819733Y-68141779D02*
G01*
X47279352Y-67682160D01*
X48481433Y-68884241D01*
X48021814Y-69343860D01*
X46819733Y-68141779D01*
G37*
G36*
X46254047Y-68707464D02*
G01*
X46713666Y-68247845D01*
X47915747Y-69449926D01*
X47456128Y-69909545D01*
X46254047Y-68707464D01*
G37*
G36*
X46713666Y-71960155D02*
G01*
X46254047Y-71500536D01*
X47456128Y-70298455D01*
X47915747Y-70758074D01*
X46713666Y-71960155D01*
G37*
G36*
X47279352Y-72525840D02*
G01*
X46819733Y-72066221D01*
X48021814Y-70864140D01*
X48481433Y-71323759D01*
X47279352Y-72525840D01*
G37*
G36*
X47845037Y-73091526D02*
G01*
X47385418Y-72631907D01*
X48587499Y-71429826D01*
X49047118Y-71889445D01*
X47845037Y-73091526D01*
G37*
G36*
X48410722Y-73657211D02*
G01*
X47951103Y-73197592D01*
X49153184Y-71995511D01*
X49612803Y-72455130D01*
X48410722Y-73657211D01*
G37*
G36*
X48976408Y-74222897D02*
G01*
X48516789Y-73763278D01*
X49718870Y-72561197D01*
X50178489Y-73020816D01*
X48976408Y-74222897D01*
G37*
G36*
X49542093Y-74788582D02*
G01*
X49082474Y-74328963D01*
X50284555Y-73126882D01*
X50744174Y-73586501D01*
X49542093Y-74788582D01*
G37*
G36*
X50107779Y-75354267D02*
G01*
X49648160Y-74894648D01*
X50850241Y-73692567D01*
X51309860Y-74152186D01*
X50107779Y-75354267D01*
G37*
G36*
X50673464Y-75919953D02*
G01*
X50213845Y-75460334D01*
X51415926Y-74258253D01*
X51875545Y-74717872D01*
X50673464Y-75919953D01*
G37*
G36*
X52264455Y-74717872D02*
G01*
X52724074Y-74258253D01*
X53926155Y-75460334D01*
X53466536Y-75919953D01*
X52264455Y-74717872D01*
G37*
G36*
X52830140Y-74152186D02*
G01*
X53289759Y-73692567D01*
X54491840Y-74894648D01*
X54032221Y-75354267D01*
X52830140Y-74152186D01*
G37*
G36*
X53395826Y-73586501D02*
G01*
X53855445Y-73126882D01*
X55057526Y-74328963D01*
X54597907Y-74788582D01*
X53395826Y-73586501D01*
G37*
G36*
X53961511Y-73020816D02*
G01*
X54421130Y-72561197D01*
X55623211Y-73763278D01*
X55163592Y-74222897D01*
X53961511Y-73020816D01*
G37*
G36*
X54527197Y-72455130D02*
G01*
X54986816Y-71995511D01*
X56188897Y-73197592D01*
X55729278Y-73657211D01*
X54527197Y-72455130D01*
G37*
G36*
X55092882Y-71889445D02*
G01*
X55552501Y-71429826D01*
X56754582Y-72631907D01*
X56294963Y-73091526D01*
X55092882Y-71889445D01*
G37*
G36*
X55658567Y-71323759D02*
G01*
X56118186Y-70864140D01*
X57320267Y-72066221D01*
X56860648Y-72525840D01*
X55658567Y-71323759D01*
G37*
G36*
X56224253Y-70758074D02*
G01*
X56683872Y-70298455D01*
X57885953Y-71500536D01*
X57426334Y-71960155D01*
X56224253Y-70758074D01*
G37*
G36*
X56683872Y-69909545D02*
G01*
X56224253Y-69449926D01*
X57426334Y-68247845D01*
X57885953Y-68707464D01*
X56683872Y-69909545D01*
G37*
G36*
X56118186Y-69343860D02*
G01*
X55658567Y-68884241D01*
X56860648Y-67682160D01*
X57320267Y-68141779D01*
X56118186Y-69343860D01*
G37*
G36*
X55552501Y-68778174D02*
G01*
X55092882Y-68318555D01*
X56294963Y-67116474D01*
X56754582Y-67576093D01*
X55552501Y-68778174D01*
G37*
G36*
X54986816Y-68212489D02*
G01*
X54527197Y-67752870D01*
X55729278Y-66550789D01*
X56188897Y-67010408D01*
X54986816Y-68212489D01*
G37*
G36*
X54421130Y-67646803D02*
G01*
X53961511Y-67187184D01*
X55163592Y-65985103D01*
X55623211Y-66444722D01*
X54421130Y-67646803D01*
G37*
G36*
X53855445Y-67081118D02*
G01*
X53395826Y-66621499D01*
X54597907Y-65419418D01*
X55057526Y-65879037D01*
X53855445Y-67081118D01*
G37*
G36*
X53289759Y-66515433D02*
G01*
X52830140Y-66055814D01*
X54032221Y-64853733D01*
X54491840Y-65313352D01*
X53289759Y-66515433D01*
G37*
G36*
X52724074Y-65949747D02*
G01*
X52264455Y-65490128D01*
X53466536Y-64288047D01*
X53926155Y-64747666D01*
X52724074Y-65949747D01*
G37*
%TD*%
D12*
%TO.C,J1*%
X49530000Y-87630000D03*
X49530000Y-85090000D03*
X52070000Y-87630000D03*
X52070000Y-85090000D03*
X54610000Y-87630000D03*
D13*
X54610000Y-85090000D03*
%TD*%
D12*
%TO.C,J3*%
X60960000Y-87630000D03*
X60960000Y-85090000D03*
X60960000Y-82550000D03*
X60960000Y-80010000D03*
X60960000Y-77470000D03*
X60960000Y-74930000D03*
X60960000Y-72390000D03*
X60960000Y-69850000D03*
X60960000Y-67310000D03*
X60960000Y-64770000D03*
X60960000Y-62230000D03*
X60960000Y-59690000D03*
X60960000Y-57150000D03*
X60960000Y-54610000D03*
D13*
X60960000Y-52070000D03*
%TD*%
D12*
%TO.C,J2*%
X43180000Y-87630000D03*
X43180000Y-85090000D03*
X43180000Y-82550000D03*
X43180000Y-80010000D03*
X43180000Y-77470000D03*
X43180000Y-74930000D03*
X43180000Y-72390000D03*
X43180000Y-69850000D03*
X43180000Y-67310000D03*
X43180000Y-64770000D03*
X43180000Y-62230000D03*
X43180000Y-59690000D03*
X43180000Y-57150000D03*
X43180000Y-54610000D03*
D13*
X43180000Y-52070000D03*
%TD*%
D14*
%TO.C,U1*%
X57996000Y-59248000D03*
X57996000Y-61148000D03*
X55796000Y-61148000D03*
X55796000Y-60198000D03*
X55796000Y-59248000D03*
%TD*%
%TO.C,R3*%
G36*
G01*
X46519000Y-59035000D02*
X46519000Y-60345000D01*
G75*
G02*
X46249000Y-60615000I-270000J0D01*
G01*
X45439000Y-60615000D01*
G75*
G02*
X45169000Y-60345000I0J270000D01*
G01*
X45169000Y-59035000D01*
G75*
G02*
X45439000Y-58765000I270000J0D01*
G01*
X46249000Y-58765000D01*
G75*
G02*
X46519000Y-59035000I0J-270000D01*
G01*
G37*
G36*
G01*
X49319000Y-59035000D02*
X49319000Y-60345000D01*
G75*
G02*
X49049000Y-60615000I-270000J0D01*
G01*
X48239000Y-60615000D01*
G75*
G02*
X47969000Y-60345000I0J270000D01*
G01*
X47969000Y-59035000D01*
G75*
G02*
X48239000Y-58765000I270000J0D01*
G01*
X49049000Y-58765000D01*
G75*
G02*
X49319000Y-59035000I0J-270000D01*
G01*
G37*
%TD*%
%TO.C,R2*%
G36*
G01*
X50145000Y-60285000D02*
X51455000Y-60285000D01*
G75*
G02*
X51725000Y-60555000I0J-270000D01*
G01*
X51725000Y-61365000D01*
G75*
G02*
X51455000Y-61635000I-270000J0D01*
G01*
X50145000Y-61635000D01*
G75*
G02*
X49875000Y-61365000I0J270000D01*
G01*
X49875000Y-60555000D01*
G75*
G02*
X50145000Y-60285000I270000J0D01*
G01*
G37*
G36*
G01*
X50145000Y-57485000D02*
X51455000Y-57485000D01*
G75*
G02*
X51725000Y-57755000I0J-270000D01*
G01*
X51725000Y-58565000D01*
G75*
G02*
X51455000Y-58835000I-270000J0D01*
G01*
X50145000Y-58835000D01*
G75*
G02*
X49875000Y-58565000I0J270000D01*
G01*
X49875000Y-57755000D01*
G75*
G02*
X50145000Y-57485000I270000J0D01*
G01*
G37*
%TD*%
%TO.C,R1*%
G36*
G01*
X58694000Y-80298000D02*
X57384000Y-80298000D01*
G75*
G02*
X57114000Y-80028000I0J270000D01*
G01*
X57114000Y-79218000D01*
G75*
G02*
X57384000Y-78948000I270000J0D01*
G01*
X58694000Y-78948000D01*
G75*
G02*
X58964000Y-79218000I0J-270000D01*
G01*
X58964000Y-80028000D01*
G75*
G02*
X58694000Y-80298000I-270000J0D01*
G01*
G37*
G36*
G01*
X58694000Y-83098000D02*
X57384000Y-83098000D01*
G75*
G02*
X57114000Y-82828000I0J270000D01*
G01*
X57114000Y-82018000D01*
G75*
G02*
X57384000Y-81748000I270000J0D01*
G01*
X58694000Y-81748000D01*
G75*
G02*
X58964000Y-82018000I0J-270000D01*
G01*
X58964000Y-82828000D01*
G75*
G02*
X58694000Y-83098000I-270000J0D01*
G01*
G37*
%TD*%
D15*
%TO.C,IC1*%
X56134000Y-64008000D03*
X58234000Y-63048000D03*
X58234000Y-64968000D03*
%TD*%
%TO.C,D2*%
G36*
G01*
X52685000Y-60291000D02*
X53995000Y-60291000D01*
G75*
G02*
X54265000Y-60561000I0J-270000D01*
G01*
X54265000Y-61371000D01*
G75*
G02*
X53995000Y-61641000I-270000J0D01*
G01*
X52685000Y-61641000D01*
G75*
G02*
X52415000Y-61371000I0J270000D01*
G01*
X52415000Y-60561000D01*
G75*
G02*
X52685000Y-60291000I270000J0D01*
G01*
G37*
G36*
G01*
X52685000Y-57491000D02*
X53995000Y-57491000D01*
G75*
G02*
X54265000Y-57761000I0J-270000D01*
G01*
X54265000Y-58571000D01*
G75*
G02*
X53995000Y-58841000I-270000J0D01*
G01*
X52685000Y-58841000D01*
G75*
G02*
X52415000Y-58571000I0J270000D01*
G01*
X52415000Y-57761000D01*
G75*
G02*
X52685000Y-57491000I270000J0D01*
G01*
G37*
%TD*%
%TO.C,D1*%
G36*
G01*
X57384000Y-77176000D02*
X58694000Y-77176000D01*
G75*
G02*
X58964000Y-77446000I0J-270000D01*
G01*
X58964000Y-78256000D01*
G75*
G02*
X58694000Y-78526000I-270000J0D01*
G01*
X57384000Y-78526000D01*
G75*
G02*
X57114000Y-78256000I0J270000D01*
G01*
X57114000Y-77446000D01*
G75*
G02*
X57384000Y-77176000I270000J0D01*
G01*
G37*
G36*
G01*
X57384000Y-74376000D02*
X58694000Y-74376000D01*
G75*
G02*
X58964000Y-74646000I0J-270000D01*
G01*
X58964000Y-75456000D01*
G75*
G02*
X58694000Y-75726000I-270000J0D01*
G01*
X57384000Y-75726000D01*
G75*
G02*
X57114000Y-75456000I0J270000D01*
G01*
X57114000Y-74646000D01*
G75*
G02*
X57384000Y-74376000I270000J0D01*
G01*
G37*
%TD*%
%TO.C,C5*%
G36*
G01*
X57130000Y-86955000D02*
X58440000Y-86955000D01*
G75*
G02*
X58710000Y-87225000I0J-270000D01*
G01*
X58710000Y-88035000D01*
G75*
G02*
X58440000Y-88305000I-270000J0D01*
G01*
X57130000Y-88305000D01*
G75*
G02*
X56860000Y-88035000I0J270000D01*
G01*
X56860000Y-87225000D01*
G75*
G02*
X57130000Y-86955000I270000J0D01*
G01*
G37*
G36*
G01*
X57130000Y-84155000D02*
X58440000Y-84155000D01*
G75*
G02*
X58710000Y-84425000I0J-270000D01*
G01*
X58710000Y-85235000D01*
G75*
G02*
X58440000Y-85505000I-270000J0D01*
G01*
X57130000Y-85505000D01*
G75*
G02*
X56860000Y-85235000I0J270000D01*
G01*
X56860000Y-84425000D01*
G75*
G02*
X57130000Y-84155000I270000J0D01*
G01*
G37*
%TD*%
%TO.C,C4*%
G36*
G01*
X45700000Y-87085000D02*
X47010000Y-87085000D01*
G75*
G02*
X47280000Y-87355000I0J-270000D01*
G01*
X47280000Y-88165000D01*
G75*
G02*
X47010000Y-88435000I-270000J0D01*
G01*
X45700000Y-88435000D01*
G75*
G02*
X45430000Y-88165000I0J270000D01*
G01*
X45430000Y-87355000D01*
G75*
G02*
X45700000Y-87085000I270000J0D01*
G01*
G37*
G36*
G01*
X45700000Y-84285000D02*
X47010000Y-84285000D01*
G75*
G02*
X47280000Y-84555000I0J-270000D01*
G01*
X47280000Y-85365000D01*
G75*
G02*
X47010000Y-85635000I-270000J0D01*
G01*
X45700000Y-85635000D01*
G75*
G02*
X45430000Y-85365000I0J270000D01*
G01*
X45430000Y-84555000D01*
G75*
G02*
X45700000Y-84285000I270000J0D01*
G01*
G37*
%TD*%
%TO.C,C2*%
G36*
G01*
X48590375Y-53620000D02*
X47421625Y-53620000D01*
G75*
G02*
X47156000Y-53354375I0J265625D01*
G01*
X47156000Y-50785625D01*
G75*
G02*
X47421625Y-50520000I265625J0D01*
G01*
X48590375Y-50520000D01*
G75*
G02*
X48856000Y-50785625I0J-265625D01*
G01*
X48856000Y-53354375D01*
G75*
G02*
X48590375Y-53620000I-265625J0D01*
G01*
G37*
G36*
G01*
X48590375Y-58020000D02*
X47421625Y-58020000D01*
G75*
G02*
X47156000Y-57754375I0J265625D01*
G01*
X47156000Y-55185625D01*
G75*
G02*
X47421625Y-54920000I265625J0D01*
G01*
X48590375Y-54920000D01*
G75*
G02*
X48856000Y-55185625I0J-265625D01*
G01*
X48856000Y-57754375D01*
G75*
G02*
X48590375Y-58020000I-265625J0D01*
G01*
G37*
%TD*%
%TO.C,C3*%
G36*
G01*
X52725000Y-52491000D02*
X51415000Y-52491000D01*
G75*
G02*
X51145000Y-52221000I0J270000D01*
G01*
X51145000Y-51411000D01*
G75*
G02*
X51415000Y-51141000I270000J0D01*
G01*
X52725000Y-51141000D01*
G75*
G02*
X52995000Y-51411000I0J-270000D01*
G01*
X52995000Y-52221000D01*
G75*
G02*
X52725000Y-52491000I-270000J0D01*
G01*
G37*
G36*
G01*
X52725000Y-55291000D02*
X51415000Y-55291000D01*
G75*
G02*
X51145000Y-55021000I0J270000D01*
G01*
X51145000Y-54211000D01*
G75*
G02*
X51415000Y-53941000I270000J0D01*
G01*
X52725000Y-53941000D01*
G75*
G02*
X52995000Y-54211000I0J-270000D01*
G01*
X52995000Y-55021000D01*
G75*
G02*
X52725000Y-55291000I-270000J0D01*
G01*
G37*
%TD*%
%TO.C,C1*%
G36*
G01*
X56718375Y-53620000D02*
X55549625Y-53620000D01*
G75*
G02*
X55284000Y-53354375I0J265625D01*
G01*
X55284000Y-50785625D01*
G75*
G02*
X55549625Y-50520000I265625J0D01*
G01*
X56718375Y-50520000D01*
G75*
G02*
X56984000Y-50785625I0J-265625D01*
G01*
X56984000Y-53354375D01*
G75*
G02*
X56718375Y-53620000I-265625J0D01*
G01*
G37*
G36*
G01*
X56718375Y-58020000D02*
X55549625Y-58020000D01*
G75*
G02*
X55284000Y-57754375I0J265625D01*
G01*
X55284000Y-55185625D01*
G75*
G02*
X55549625Y-54920000I265625J0D01*
G01*
X56718375Y-54920000D01*
G75*
G02*
X56984000Y-55185625I0J-265625D01*
G01*
X56984000Y-57754375D01*
G75*
G02*
X56718375Y-58020000I-265625J0D01*
G01*
G37*
%TD*%
M02*
