%TF.GenerationSoftware,KiCad,Pcbnew,(6.0.10-0)*%
%TF.CreationDate,2024-10-12T01:55:58-04:00*%
%TF.ProjectId,bareduino,62617265-6475-4696-9e6f-2e6b69636164,rev?*%
%TF.SameCoordinates,Original*%
%TF.FileFunction,Paste,Top*%
%TF.FilePolarity,Positive*%
%FSLAX46Y46*%
G04 Gerber Fmt 4.6, Leading zero omitted, Abs format (unit mm)*
G04 Created by KiCad (PCBNEW (6.0.10-0)) date 2024-10-12 01:55:58*
%MOMM*%
%LPD*%
G01*
G04 APERTURE LIST*
G04 Aperture macros list*
%AMRoundRect*
0 Rectangle with rounded corners*
0 $1 Rounding radius*
0 $2 $3 $4 $5 $6 $7 $8 $9 X,Y pos of 4 corners*
0 Add a 4 corners polygon primitive as box body*
4,1,4,$2,$3,$4,$5,$6,$7,$8,$9,$2,$3,0*
0 Add four circle primitives for the rounded corners*
1,1,$1+$1,$2,$3*
1,1,$1+$1,$4,$5*
1,1,$1+$1,$6,$7*
1,1,$1+$1,$8,$9*
0 Add four rect primitives between the rounded corners*
20,1,$1+$1,$2,$3,$4,$5,0*
20,1,$1+$1,$4,$5,$6,$7,0*
20,1,$1+$1,$6,$7,$8,$9,0*
20,1,$1+$1,$8,$9,$2,$3,0*%
%AMRotRect*
0 Rectangle, with rotation*
0 The origin of the aperture is its center*
0 $1 length*
0 $2 width*
0 $3 Rotation angle, in degrees counterclockwise*
0 Add horizontal line*
21,1,$1,$2,0,0,$3*%
G04 Aperture macros list end*
%ADD10RoundRect,0.225000X0.250000X-0.225000X0.250000X0.225000X-0.250000X0.225000X-0.250000X-0.225000X0*%
%ADD11RoundRect,0.225000X-0.250000X0.225000X-0.250000X-0.225000X0.250000X-0.225000X0.250000X0.225000X0*%
%ADD12RoundRect,0.225000X-0.225000X-0.250000X0.225000X-0.250000X0.225000X0.250000X-0.225000X0.250000X0*%
%ADD13RoundRect,0.225000X0.225000X0.250000X-0.225000X0.250000X-0.225000X-0.250000X0.225000X-0.250000X0*%
%ADD14RoundRect,0.218750X-0.218750X-0.256250X0.218750X-0.256250X0.218750X0.256250X-0.218750X0.256250X0*%
%ADD15RoundRect,0.218750X0.218750X0.256250X-0.218750X0.256250X-0.218750X-0.256250X0.218750X-0.256250X0*%
%ADD16RoundRect,0.200000X0.200000X0.275000X-0.200000X0.275000X-0.200000X-0.275000X0.200000X-0.275000X0*%
%ADD17RoundRect,0.200000X-0.200000X-0.275000X0.200000X-0.275000X0.200000X0.275000X-0.200000X0.275000X0*%
%ADD18RoundRect,0.200000X-0.275000X0.200000X-0.275000X-0.200000X0.275000X-0.200000X0.275000X0.200000X0*%
%ADD19RotRect,1.600000X0.550000X315.000000*%
%ADD20RotRect,1.600000X0.550000X45.000000*%
%ADD21R,1.060000X0.650000*%
%ADD22RoundRect,0.225000X0.017678X-0.335876X0.335876X-0.017678X-0.017678X0.335876X-0.335876X0.017678X0*%
G04 APERTURE END LIST*
D10*
%TO.C,C2*%
X51152578Y-54242000D03*
X51152578Y-52692000D03*
%TD*%
D11*
%TO.C,C3*%
X49247578Y-56375000D03*
X49247578Y-57925000D03*
%TD*%
D12*
%TO.C,C6*%
X49644000Y-60350400D03*
X51194000Y-60350400D03*
%TD*%
D13*
%TO.C,C7*%
X54750000Y-60350400D03*
X53200000Y-60350400D03*
%TD*%
D14*
%TO.C,D1*%
X53568500Y-82296000D03*
X55143500Y-82296000D03*
%TD*%
D15*
%TO.C,D2*%
X50698500Y-82296000D03*
X49123500Y-82296000D03*
%TD*%
D16*
%TO.C,R1*%
X56832000Y-80645000D03*
X55182000Y-80645000D03*
%TD*%
D17*
%TO.C,R2*%
X47435000Y-80645000D03*
X49085000Y-80645000D03*
%TD*%
D18*
%TO.C,R3*%
X57099200Y-67907400D03*
X57099200Y-69557400D03*
%TD*%
D19*
%TO.C,U3*%
X51044695Y-69563897D03*
X50479010Y-70129583D03*
X49913324Y-70695268D03*
X49347639Y-71260953D03*
X48781953Y-71826639D03*
X48216268Y-72392324D03*
X47650583Y-72958010D03*
X47084897Y-73523695D03*
D20*
X47084897Y-75574305D03*
X47650583Y-76139990D03*
X48216268Y-76705676D03*
X48781953Y-77271361D03*
X49347639Y-77837047D03*
X49913324Y-78402732D03*
X50479010Y-78968417D03*
X51044695Y-79534103D03*
D19*
X53095305Y-79534103D03*
X53660990Y-78968417D03*
X54226676Y-78402732D03*
X54792361Y-77837047D03*
X55358047Y-77271361D03*
X55923732Y-76705676D03*
X56489417Y-76139990D03*
X57055103Y-75574305D03*
D20*
X57055103Y-73523695D03*
X56489417Y-72958010D03*
X55923732Y-72392324D03*
X55358047Y-71826639D03*
X54792361Y-71260953D03*
X54226676Y-70695268D03*
X53660990Y-70129583D03*
X53095305Y-69563897D03*
%TD*%
D21*
%TO.C,U2*%
X52973578Y-52263000D03*
X52973578Y-53213000D03*
X52973578Y-54163000D03*
X55173578Y-54163000D03*
X55173578Y-52263000D03*
%TD*%
%TO.C,U1*%
X52973578Y-56454000D03*
X52973578Y-57404000D03*
X52973578Y-58354000D03*
X55173578Y-58354000D03*
X55173578Y-56454000D03*
%TD*%
D22*
%TO.C,C5*%
X46238792Y-68924808D03*
X47334808Y-67828792D03*
%TD*%
D11*
%TO.C,C1*%
X51152578Y-56375000D03*
X51152578Y-57925000D03*
%TD*%
D22*
%TO.C,C4*%
X47447200Y-70104000D03*
X48543216Y-69007984D03*
%TD*%
M02*
