%TF.GenerationSoftware,KiCad,Pcbnew,(5.1.6-0-10_14)*%
%TF.CreationDate,2021-08-14T22:27:43-04:00*%
%TF.ProjectId,bareduino,62617265-6475-4696-9e6f-2e6b69636164,rev?*%
%TF.SameCoordinates,Original*%
%TF.FileFunction,Soldermask,Bot*%
%TF.FilePolarity,Negative*%
%FSLAX46Y46*%
G04 Gerber Fmt 4.6, Leading zero omitted, Abs format (unit mm)*
G04 Created by KiCad (PCBNEW (5.1.6-0-10_14)) date 2021-08-14 22:27:43*
%MOMM*%
%LPD*%
G01*
G04 APERTURE LIST*
%ADD10R,1.100000X1.600000*%
%ADD11C,0.100000*%
%ADD12C,1.600000*%
%ADD13O,1.800000X1.800000*%
%ADD14R,1.800000X1.800000*%
G04 APERTURE END LIST*
D10*
%TO.C,JP1*%
X52070000Y-53340000D03*
D11*
G36*
X50763889Y-54139398D02*
G01*
X50745466Y-54139398D01*
X50740565Y-54139157D01*
X50691734Y-54134347D01*
X50686881Y-54133627D01*
X50638756Y-54124055D01*
X50633995Y-54122863D01*
X50587040Y-54108619D01*
X50582421Y-54106966D01*
X50537088Y-54088189D01*
X50532651Y-54086091D01*
X50489378Y-54062960D01*
X50485171Y-54060438D01*
X50444372Y-54033178D01*
X50440430Y-54030254D01*
X50402501Y-53999126D01*
X50398866Y-53995831D01*
X50364169Y-53961134D01*
X50360874Y-53957499D01*
X50329746Y-53919570D01*
X50326822Y-53915628D01*
X50299562Y-53874829D01*
X50297040Y-53870622D01*
X50273909Y-53827349D01*
X50271811Y-53822912D01*
X50253034Y-53777579D01*
X50251381Y-53772960D01*
X50237137Y-53726005D01*
X50235945Y-53721244D01*
X50226373Y-53673119D01*
X50225653Y-53668266D01*
X50220843Y-53619435D01*
X50220602Y-53614534D01*
X50220602Y-53596111D01*
X50220000Y-53590000D01*
X50220000Y-53090000D01*
X50220602Y-53083889D01*
X50220602Y-53065466D01*
X50220843Y-53060565D01*
X50225653Y-53011734D01*
X50226373Y-53006881D01*
X50235945Y-52958756D01*
X50237137Y-52953995D01*
X50251381Y-52907040D01*
X50253034Y-52902421D01*
X50271811Y-52857088D01*
X50273909Y-52852651D01*
X50297040Y-52809378D01*
X50299562Y-52805171D01*
X50326822Y-52764372D01*
X50329746Y-52760430D01*
X50360874Y-52722501D01*
X50364169Y-52718866D01*
X50398866Y-52684169D01*
X50402501Y-52680874D01*
X50440430Y-52649746D01*
X50444372Y-52646822D01*
X50485171Y-52619562D01*
X50489378Y-52617040D01*
X50532651Y-52593909D01*
X50537088Y-52591811D01*
X50582421Y-52573034D01*
X50587040Y-52571381D01*
X50633995Y-52557137D01*
X50638756Y-52555945D01*
X50686881Y-52546373D01*
X50691734Y-52545653D01*
X50740565Y-52540843D01*
X50745466Y-52540602D01*
X50763889Y-52540602D01*
X50770000Y-52540000D01*
X51320000Y-52540000D01*
X51329755Y-52540961D01*
X51339134Y-52543806D01*
X51347779Y-52548427D01*
X51355355Y-52554645D01*
X51361573Y-52562221D01*
X51366194Y-52570866D01*
X51369039Y-52580245D01*
X51370000Y-52590000D01*
X51370000Y-54090000D01*
X51369039Y-54099755D01*
X51366194Y-54109134D01*
X51361573Y-54117779D01*
X51355355Y-54125355D01*
X51347779Y-54131573D01*
X51339134Y-54136194D01*
X51329755Y-54139039D01*
X51320000Y-54140000D01*
X50770000Y-54140000D01*
X50763889Y-54139398D01*
G37*
G36*
X52810245Y-54139039D02*
G01*
X52800866Y-54136194D01*
X52792221Y-54131573D01*
X52784645Y-54125355D01*
X52778427Y-54117779D01*
X52773806Y-54109134D01*
X52770961Y-54099755D01*
X52770000Y-54090000D01*
X52770000Y-52590000D01*
X52770961Y-52580245D01*
X52773806Y-52570866D01*
X52778427Y-52562221D01*
X52784645Y-52554645D01*
X52792221Y-52548427D01*
X52800866Y-52543806D01*
X52810245Y-52540961D01*
X52820000Y-52540000D01*
X53370000Y-52540000D01*
X53376111Y-52540602D01*
X53394534Y-52540602D01*
X53399435Y-52540843D01*
X53448266Y-52545653D01*
X53453119Y-52546373D01*
X53501244Y-52555945D01*
X53506005Y-52557137D01*
X53552960Y-52571381D01*
X53557579Y-52573034D01*
X53602912Y-52591811D01*
X53607349Y-52593909D01*
X53650622Y-52617040D01*
X53654829Y-52619562D01*
X53695628Y-52646822D01*
X53699570Y-52649746D01*
X53737499Y-52680874D01*
X53741134Y-52684169D01*
X53775831Y-52718866D01*
X53779126Y-52722501D01*
X53810254Y-52760430D01*
X53813178Y-52764372D01*
X53840438Y-52805171D01*
X53842960Y-52809378D01*
X53866091Y-52852651D01*
X53868189Y-52857088D01*
X53886966Y-52902421D01*
X53888619Y-52907040D01*
X53902863Y-52953995D01*
X53904055Y-52958756D01*
X53913627Y-53006881D01*
X53914347Y-53011734D01*
X53919157Y-53060565D01*
X53919398Y-53065466D01*
X53919398Y-53083889D01*
X53920000Y-53090000D01*
X53920000Y-53590000D01*
X53919398Y-53596111D01*
X53919398Y-53614534D01*
X53919157Y-53619435D01*
X53914347Y-53668266D01*
X53913627Y-53673119D01*
X53904055Y-53721244D01*
X53902863Y-53726005D01*
X53888619Y-53772960D01*
X53886966Y-53777579D01*
X53868189Y-53822912D01*
X53866091Y-53827349D01*
X53842960Y-53870622D01*
X53840438Y-53874829D01*
X53813178Y-53915628D01*
X53810254Y-53919570D01*
X53779126Y-53957499D01*
X53775831Y-53961134D01*
X53741134Y-53995831D01*
X53737499Y-53999126D01*
X53699570Y-54030254D01*
X53695628Y-54033178D01*
X53654829Y-54060438D01*
X53650622Y-54062960D01*
X53607349Y-54086091D01*
X53602912Y-54088189D01*
X53557579Y-54106966D01*
X53552960Y-54108619D01*
X53506005Y-54122863D01*
X53501244Y-54124055D01*
X53453119Y-54133627D01*
X53448266Y-54134347D01*
X53399435Y-54139157D01*
X53394534Y-54139398D01*
X53376111Y-54139398D01*
X53370000Y-54140000D01*
X52820000Y-54140000D01*
X52810245Y-54139039D01*
G37*
%TD*%
D12*
%TO.C,Y1*%
X53394000Y-80518000D03*
X48514000Y-80518000D03*
%TD*%
D13*
%TO.C,J1*%
X49530000Y-87630000D03*
X49530000Y-85090000D03*
X52070000Y-87630000D03*
X52070000Y-85090000D03*
X54610000Y-87630000D03*
D14*
X54610000Y-85090000D03*
%TD*%
D13*
%TO.C,J3*%
X60960000Y-87630000D03*
X60960000Y-85090000D03*
X60960000Y-82550000D03*
X60960000Y-80010000D03*
X60960000Y-77470000D03*
X60960000Y-74930000D03*
X60960000Y-72390000D03*
X60960000Y-69850000D03*
X60960000Y-67310000D03*
X60960000Y-64770000D03*
X60960000Y-62230000D03*
X60960000Y-59690000D03*
X60960000Y-57150000D03*
X60960000Y-54610000D03*
D14*
X60960000Y-52070000D03*
%TD*%
D13*
%TO.C,J2*%
X43180000Y-87630000D03*
X43180000Y-85090000D03*
X43180000Y-82550000D03*
X43180000Y-80010000D03*
X43180000Y-77470000D03*
X43180000Y-74930000D03*
X43180000Y-72390000D03*
X43180000Y-69850000D03*
X43180000Y-67310000D03*
X43180000Y-64770000D03*
X43180000Y-62230000D03*
X43180000Y-59690000D03*
X43180000Y-57150000D03*
X43180000Y-54610000D03*
D14*
X43180000Y-52070000D03*
%TD*%
M02*
