M48
; DRILL file {KiCad (5.1.6-0-10_14)} date Saturday, August 14, 2021 at 10:27:47 PM
; FORMAT={-:-/ absolute / inch / decimal}
; #@! TF.CreationDate,2021-08-14T22:27:47-04:00
; #@! TF.GenerationSoftware,Kicad,Pcbnew,(5.1.6-0-10_14)
; #@! TF.FileFunction,Plated,1,2,PTH
FMAT,2
INCH
T1C0.0157
T2C0.0315
T3C0.0394
%
G90
G05
T1
X1.83Y-2.43
X1.8941Y-2.5959
X1.9181Y-2.7353
X1.93Y-2.4183
X1.93Y-2.78
X1.9685Y-3.1815
X2.0048Y-2.7348
X2.03Y-2.22
X2.04Y-2.64
X2.0798Y-3.2798
X2.09Y-2.69
X2.09Y-2.85
X2.14Y-2.77
X2.1902Y-3.1098
X2.21Y-3.42
X2.27Y-2.89
T2
X1.91Y-3.17
X2.1021Y-3.17
T3
X1.7Y-2.05
X1.7Y-2.15
X1.7Y-2.25
X1.7Y-2.35
X1.7Y-2.45
X1.7Y-2.55
X1.7Y-2.65
X1.7Y-2.75
X1.7Y-2.85
X1.7Y-2.95
X1.7Y-3.05
X1.7Y-3.15
X1.7Y-3.25
X1.7Y-3.35
X1.7Y-3.45
X1.95Y-3.35
X1.95Y-3.45
X2.05Y-3.35
X2.05Y-3.45
X2.15Y-3.35
X2.15Y-3.45
X2.4Y-2.05
X2.4Y-2.15
X2.4Y-2.25
X2.4Y-2.35
X2.4Y-2.45
X2.4Y-2.55
X2.4Y-2.65
X2.4Y-2.75
X2.4Y-2.85
X2.4Y-2.95
X2.4Y-3.05
X2.4Y-3.15
X2.4Y-3.25
X2.4Y-3.35
X2.4Y-3.45
T0
M30
