%TF.GenerationSoftware,KiCad,Pcbnew,(5.1.6-0-10_14)*%
%TF.CreationDate,2021-08-14T22:27:43-04:00*%
%TF.ProjectId,bareduino,62617265-6475-4696-9e6f-2e6b69636164,rev?*%
%TF.SameCoordinates,Original*%
%TF.FileFunction,Paste,Top*%
%TF.FilePolarity,Positive*%
%FSLAX46Y46*%
G04 Gerber Fmt 4.6, Leading zero omitted, Abs format (unit mm)*
G04 Created by KiCad (PCBNEW (5.1.6-0-10_14)) date 2021-08-14 22:27:43*
%MOMM*%
%LPD*%
G01*
G04 APERTURE LIST*
%ADD10C,0.100000*%
%ADD11R,1.060000X0.650000*%
%ADD12R,1.200000X0.650000*%
G04 APERTURE END LIST*
D10*
%TO.C,U2*%
G36*
X50284555Y-64747666D02*
G01*
X50673464Y-64358757D01*
X51804835Y-65490128D01*
X51415926Y-65879037D01*
X50284555Y-64747666D01*
G37*
G36*
X49718870Y-65313352D02*
G01*
X50107779Y-64924443D01*
X51239150Y-66055814D01*
X50850241Y-66444723D01*
X49718870Y-65313352D01*
G37*
G36*
X49153184Y-65879037D02*
G01*
X49542093Y-65490128D01*
X50673464Y-66621499D01*
X50284555Y-67010408D01*
X49153184Y-65879037D01*
G37*
G36*
X48587499Y-66444722D02*
G01*
X48976408Y-66055813D01*
X50107779Y-67187184D01*
X49718870Y-67576093D01*
X48587499Y-66444722D01*
G37*
G36*
X48021813Y-67010408D02*
G01*
X48410722Y-66621499D01*
X49542093Y-67752870D01*
X49153184Y-68141779D01*
X48021813Y-67010408D01*
G37*
G36*
X47456128Y-67576093D02*
G01*
X47845037Y-67187184D01*
X48976408Y-68318555D01*
X48587499Y-68707464D01*
X47456128Y-67576093D01*
G37*
G36*
X46890443Y-68141779D02*
G01*
X47279352Y-67752870D01*
X48410723Y-68884241D01*
X48021814Y-69273150D01*
X46890443Y-68141779D01*
G37*
G36*
X46324757Y-68707464D02*
G01*
X46713666Y-68318555D01*
X47845037Y-69449926D01*
X47456128Y-69838835D01*
X46324757Y-68707464D01*
G37*
G36*
X46713666Y-71889445D02*
G01*
X46324757Y-71500536D01*
X47456128Y-70369165D01*
X47845037Y-70758074D01*
X46713666Y-71889445D01*
G37*
G36*
X47279352Y-72455130D02*
G01*
X46890443Y-72066221D01*
X48021814Y-70934850D01*
X48410723Y-71323759D01*
X47279352Y-72455130D01*
G37*
G36*
X47845037Y-73020816D02*
G01*
X47456128Y-72631907D01*
X48587499Y-71500536D01*
X48976408Y-71889445D01*
X47845037Y-73020816D01*
G37*
G36*
X48410722Y-73586501D02*
G01*
X48021813Y-73197592D01*
X49153184Y-72066221D01*
X49542093Y-72455130D01*
X48410722Y-73586501D01*
G37*
G36*
X48976408Y-74152187D02*
G01*
X48587499Y-73763278D01*
X49718870Y-72631907D01*
X50107779Y-73020816D01*
X48976408Y-74152187D01*
G37*
G36*
X49542093Y-74717872D02*
G01*
X49153184Y-74328963D01*
X50284555Y-73197592D01*
X50673464Y-73586501D01*
X49542093Y-74717872D01*
G37*
G36*
X50107779Y-75283557D02*
G01*
X49718870Y-74894648D01*
X50850241Y-73763277D01*
X51239150Y-74152186D01*
X50107779Y-75283557D01*
G37*
G36*
X50673464Y-75849243D02*
G01*
X50284555Y-75460334D01*
X51415926Y-74328963D01*
X51804835Y-74717872D01*
X50673464Y-75849243D01*
G37*
G36*
X52335165Y-74717872D02*
G01*
X52724074Y-74328963D01*
X53855445Y-75460334D01*
X53466536Y-75849243D01*
X52335165Y-74717872D01*
G37*
G36*
X52900850Y-74152186D02*
G01*
X53289759Y-73763277D01*
X54421130Y-74894648D01*
X54032221Y-75283557D01*
X52900850Y-74152186D01*
G37*
G36*
X53466536Y-73586501D02*
G01*
X53855445Y-73197592D01*
X54986816Y-74328963D01*
X54597907Y-74717872D01*
X53466536Y-73586501D01*
G37*
G36*
X54032221Y-73020816D02*
G01*
X54421130Y-72631907D01*
X55552501Y-73763278D01*
X55163592Y-74152187D01*
X54032221Y-73020816D01*
G37*
G36*
X54597907Y-72455130D02*
G01*
X54986816Y-72066221D01*
X56118187Y-73197592D01*
X55729278Y-73586501D01*
X54597907Y-72455130D01*
G37*
G36*
X55163592Y-71889445D02*
G01*
X55552501Y-71500536D01*
X56683872Y-72631907D01*
X56294963Y-73020816D01*
X55163592Y-71889445D01*
G37*
G36*
X55729277Y-71323759D02*
G01*
X56118186Y-70934850D01*
X57249557Y-72066221D01*
X56860648Y-72455130D01*
X55729277Y-71323759D01*
G37*
G36*
X56294963Y-70758074D02*
G01*
X56683872Y-70369165D01*
X57815243Y-71500536D01*
X57426334Y-71889445D01*
X56294963Y-70758074D01*
G37*
G36*
X56683872Y-69838835D02*
G01*
X56294963Y-69449926D01*
X57426334Y-68318555D01*
X57815243Y-68707464D01*
X56683872Y-69838835D01*
G37*
G36*
X56118186Y-69273150D02*
G01*
X55729277Y-68884241D01*
X56860648Y-67752870D01*
X57249557Y-68141779D01*
X56118186Y-69273150D01*
G37*
G36*
X55552501Y-68707464D02*
G01*
X55163592Y-68318555D01*
X56294963Y-67187184D01*
X56683872Y-67576093D01*
X55552501Y-68707464D01*
G37*
G36*
X54986816Y-68141779D02*
G01*
X54597907Y-67752870D01*
X55729278Y-66621499D01*
X56118187Y-67010408D01*
X54986816Y-68141779D01*
G37*
G36*
X54421130Y-67576093D02*
G01*
X54032221Y-67187184D01*
X55163592Y-66055813D01*
X55552501Y-66444722D01*
X54421130Y-67576093D01*
G37*
G36*
X53855445Y-67010408D02*
G01*
X53466536Y-66621499D01*
X54597907Y-65490128D01*
X54986816Y-65879037D01*
X53855445Y-67010408D01*
G37*
G36*
X53289759Y-66444723D02*
G01*
X52900850Y-66055814D01*
X54032221Y-64924443D01*
X54421130Y-65313352D01*
X53289759Y-66444723D01*
G37*
G36*
X52724074Y-65879037D02*
G01*
X52335165Y-65490128D01*
X53466536Y-64358757D01*
X53855445Y-64747666D01*
X52724074Y-65879037D01*
G37*
%TD*%
D11*
%TO.C,U1*%
X57996000Y-59248000D03*
X57996000Y-61148000D03*
X55796000Y-61148000D03*
X55796000Y-60198000D03*
X55796000Y-59248000D03*
%TD*%
%TO.C,R3*%
G36*
G01*
X46469000Y-59065000D02*
X46469000Y-60315000D01*
G75*
G02*
X46219000Y-60565000I-250000J0D01*
G01*
X45469000Y-60565000D01*
G75*
G02*
X45219000Y-60315000I0J250000D01*
G01*
X45219000Y-59065000D01*
G75*
G02*
X45469000Y-58815000I250000J0D01*
G01*
X46219000Y-58815000D01*
G75*
G02*
X46469000Y-59065000I0J-250000D01*
G01*
G37*
G36*
G01*
X49269000Y-59065000D02*
X49269000Y-60315000D01*
G75*
G02*
X49019000Y-60565000I-250000J0D01*
G01*
X48269000Y-60565000D01*
G75*
G02*
X48019000Y-60315000I0J250000D01*
G01*
X48019000Y-59065000D01*
G75*
G02*
X48269000Y-58815000I250000J0D01*
G01*
X49019000Y-58815000D01*
G75*
G02*
X49269000Y-59065000I0J-250000D01*
G01*
G37*
%TD*%
%TO.C,R2*%
G36*
G01*
X50175000Y-60335000D02*
X51425000Y-60335000D01*
G75*
G02*
X51675000Y-60585000I0J-250000D01*
G01*
X51675000Y-61335000D01*
G75*
G02*
X51425000Y-61585000I-250000J0D01*
G01*
X50175000Y-61585000D01*
G75*
G02*
X49925000Y-61335000I0J250000D01*
G01*
X49925000Y-60585000D01*
G75*
G02*
X50175000Y-60335000I250000J0D01*
G01*
G37*
G36*
G01*
X50175000Y-57535000D02*
X51425000Y-57535000D01*
G75*
G02*
X51675000Y-57785000I0J-250000D01*
G01*
X51675000Y-58535000D01*
G75*
G02*
X51425000Y-58785000I-250000J0D01*
G01*
X50175000Y-58785000D01*
G75*
G02*
X49925000Y-58535000I0J250000D01*
G01*
X49925000Y-57785000D01*
G75*
G02*
X50175000Y-57535000I250000J0D01*
G01*
G37*
%TD*%
%TO.C,R1*%
G36*
G01*
X58664000Y-80248000D02*
X57414000Y-80248000D01*
G75*
G02*
X57164000Y-79998000I0J250000D01*
G01*
X57164000Y-79248000D01*
G75*
G02*
X57414000Y-78998000I250000J0D01*
G01*
X58664000Y-78998000D01*
G75*
G02*
X58914000Y-79248000I0J-250000D01*
G01*
X58914000Y-79998000D01*
G75*
G02*
X58664000Y-80248000I-250000J0D01*
G01*
G37*
G36*
G01*
X58664000Y-83048000D02*
X57414000Y-83048000D01*
G75*
G02*
X57164000Y-82798000I0J250000D01*
G01*
X57164000Y-82048000D01*
G75*
G02*
X57414000Y-81798000I250000J0D01*
G01*
X58664000Y-81798000D01*
G75*
G02*
X58914000Y-82048000I0J-250000D01*
G01*
X58914000Y-82798000D01*
G75*
G02*
X58664000Y-83048000I-250000J0D01*
G01*
G37*
%TD*%
D12*
%TO.C,IC1*%
X56134000Y-64008000D03*
X58234000Y-63048000D03*
X58234000Y-64968000D03*
%TD*%
%TO.C,D2*%
G36*
G01*
X52715000Y-60341000D02*
X53965000Y-60341000D01*
G75*
G02*
X54215000Y-60591000I0J-250000D01*
G01*
X54215000Y-61341000D01*
G75*
G02*
X53965000Y-61591000I-250000J0D01*
G01*
X52715000Y-61591000D01*
G75*
G02*
X52465000Y-61341000I0J250000D01*
G01*
X52465000Y-60591000D01*
G75*
G02*
X52715000Y-60341000I250000J0D01*
G01*
G37*
G36*
G01*
X52715000Y-57541000D02*
X53965000Y-57541000D01*
G75*
G02*
X54215000Y-57791000I0J-250000D01*
G01*
X54215000Y-58541000D01*
G75*
G02*
X53965000Y-58791000I-250000J0D01*
G01*
X52715000Y-58791000D01*
G75*
G02*
X52465000Y-58541000I0J250000D01*
G01*
X52465000Y-57791000D01*
G75*
G02*
X52715000Y-57541000I250000J0D01*
G01*
G37*
%TD*%
%TO.C,D1*%
G36*
G01*
X57414000Y-77226000D02*
X58664000Y-77226000D01*
G75*
G02*
X58914000Y-77476000I0J-250000D01*
G01*
X58914000Y-78226000D01*
G75*
G02*
X58664000Y-78476000I-250000J0D01*
G01*
X57414000Y-78476000D01*
G75*
G02*
X57164000Y-78226000I0J250000D01*
G01*
X57164000Y-77476000D01*
G75*
G02*
X57414000Y-77226000I250000J0D01*
G01*
G37*
G36*
G01*
X57414000Y-74426000D02*
X58664000Y-74426000D01*
G75*
G02*
X58914000Y-74676000I0J-250000D01*
G01*
X58914000Y-75426000D01*
G75*
G02*
X58664000Y-75676000I-250000J0D01*
G01*
X57414000Y-75676000D01*
G75*
G02*
X57164000Y-75426000I0J250000D01*
G01*
X57164000Y-74676000D01*
G75*
G02*
X57414000Y-74426000I250000J0D01*
G01*
G37*
%TD*%
%TO.C,C5*%
G36*
G01*
X57160000Y-87005000D02*
X58410000Y-87005000D01*
G75*
G02*
X58660000Y-87255000I0J-250000D01*
G01*
X58660000Y-88005000D01*
G75*
G02*
X58410000Y-88255000I-250000J0D01*
G01*
X57160000Y-88255000D01*
G75*
G02*
X56910000Y-88005000I0J250000D01*
G01*
X56910000Y-87255000D01*
G75*
G02*
X57160000Y-87005000I250000J0D01*
G01*
G37*
G36*
G01*
X57160000Y-84205000D02*
X58410000Y-84205000D01*
G75*
G02*
X58660000Y-84455000I0J-250000D01*
G01*
X58660000Y-85205000D01*
G75*
G02*
X58410000Y-85455000I-250000J0D01*
G01*
X57160000Y-85455000D01*
G75*
G02*
X56910000Y-85205000I0J250000D01*
G01*
X56910000Y-84455000D01*
G75*
G02*
X57160000Y-84205000I250000J0D01*
G01*
G37*
%TD*%
%TO.C,C4*%
G36*
G01*
X45730000Y-87135000D02*
X46980000Y-87135000D01*
G75*
G02*
X47230000Y-87385000I0J-250000D01*
G01*
X47230000Y-88135000D01*
G75*
G02*
X46980000Y-88385000I-250000J0D01*
G01*
X45730000Y-88385000D01*
G75*
G02*
X45480000Y-88135000I0J250000D01*
G01*
X45480000Y-87385000D01*
G75*
G02*
X45730000Y-87135000I250000J0D01*
G01*
G37*
G36*
G01*
X45730000Y-84335000D02*
X46980000Y-84335000D01*
G75*
G02*
X47230000Y-84585000I0J-250000D01*
G01*
X47230000Y-85335000D01*
G75*
G02*
X46980000Y-85585000I-250000J0D01*
G01*
X45730000Y-85585000D01*
G75*
G02*
X45480000Y-85335000I0J250000D01*
G01*
X45480000Y-84585000D01*
G75*
G02*
X45730000Y-84335000I250000J0D01*
G01*
G37*
%TD*%
%TO.C,C2*%
G36*
G01*
X48556000Y-53570000D02*
X47456000Y-53570000D01*
G75*
G02*
X47206000Y-53320000I0J250000D01*
G01*
X47206000Y-50820000D01*
G75*
G02*
X47456000Y-50570000I250000J0D01*
G01*
X48556000Y-50570000D01*
G75*
G02*
X48806000Y-50820000I0J-250000D01*
G01*
X48806000Y-53320000D01*
G75*
G02*
X48556000Y-53570000I-250000J0D01*
G01*
G37*
G36*
G01*
X48556000Y-57970000D02*
X47456000Y-57970000D01*
G75*
G02*
X47206000Y-57720000I0J250000D01*
G01*
X47206000Y-55220000D01*
G75*
G02*
X47456000Y-54970000I250000J0D01*
G01*
X48556000Y-54970000D01*
G75*
G02*
X48806000Y-55220000I0J-250000D01*
G01*
X48806000Y-57720000D01*
G75*
G02*
X48556000Y-57970000I-250000J0D01*
G01*
G37*
%TD*%
%TO.C,C3*%
G36*
G01*
X52695000Y-52441000D02*
X51445000Y-52441000D01*
G75*
G02*
X51195000Y-52191000I0J250000D01*
G01*
X51195000Y-51441000D01*
G75*
G02*
X51445000Y-51191000I250000J0D01*
G01*
X52695000Y-51191000D01*
G75*
G02*
X52945000Y-51441000I0J-250000D01*
G01*
X52945000Y-52191000D01*
G75*
G02*
X52695000Y-52441000I-250000J0D01*
G01*
G37*
G36*
G01*
X52695000Y-55241000D02*
X51445000Y-55241000D01*
G75*
G02*
X51195000Y-54991000I0J250000D01*
G01*
X51195000Y-54241000D01*
G75*
G02*
X51445000Y-53991000I250000J0D01*
G01*
X52695000Y-53991000D01*
G75*
G02*
X52945000Y-54241000I0J-250000D01*
G01*
X52945000Y-54991000D01*
G75*
G02*
X52695000Y-55241000I-250000J0D01*
G01*
G37*
%TD*%
%TO.C,C1*%
G36*
G01*
X56684000Y-53570000D02*
X55584000Y-53570000D01*
G75*
G02*
X55334000Y-53320000I0J250000D01*
G01*
X55334000Y-50820000D01*
G75*
G02*
X55584000Y-50570000I250000J0D01*
G01*
X56684000Y-50570000D01*
G75*
G02*
X56934000Y-50820000I0J-250000D01*
G01*
X56934000Y-53320000D01*
G75*
G02*
X56684000Y-53570000I-250000J0D01*
G01*
G37*
G36*
G01*
X56684000Y-57970000D02*
X55584000Y-57970000D01*
G75*
G02*
X55334000Y-57720000I0J250000D01*
G01*
X55334000Y-55220000D01*
G75*
G02*
X55584000Y-54970000I250000J0D01*
G01*
X56684000Y-54970000D01*
G75*
G02*
X56934000Y-55220000I0J-250000D01*
G01*
X56934000Y-57720000D01*
G75*
G02*
X56684000Y-57970000I-250000J0D01*
G01*
G37*
%TD*%
M02*
